<?xml version="1.0" encoding="UTF-8" standalone="no"?>
<!-- Created with Inkscape (http://www.inkscape.org/) -->

<svg
   xmlns:dc="http://purl.org/dc/elements/1.1/"
   xmlns:cc="http://creativecommons.org/ns#"
   xmlns:rdf="http://www.w3.org/1999/02/22-rdf-syntax-ns#"
   xmlns:svg="http://www.w3.org/2000/svg"
   xmlns="http://www.w3.org/2000/svg"
   xmlns:sodipodi="http://sodipodi.sourceforge.net/DTD/sodipodi-0.dtd"
   xmlns:inkscape="http://www.inkscape.org/namespaces/inkscape"
   width="46.773064mm"
   height="46.773048mm"
   viewBox="0 0 46.773064 46.773048"
   version="1.1"
   id="svg5976"
   inkscape:version="0.92.4 (5da689c313, 2019-01-14)"
   sodipodi:docname="case.svg">
  <defs
     id="defs5970" />
  <sodipodi:namedview
     id="base"
     pagecolor="#ffffff"
     bordercolor="#666666"
     borderopacity="1.0"
     inkscape:pageopacity="0.0"
     inkscape:pageshadow="2"
     inkscape:zoom="0.35"
     inkscape:cx="-411.60995"
     inkscape:cy="28.389994"
     inkscape:document-units="mm"
     inkscape:current-layer="layer1"
     showgrid="false"
     inkscape:window-width="1920"
     inkscape:window-height="1016"
     inkscape:window-x="1680"
     inkscape:window-y="27"
     inkscape:window-maximized="1" />
  <metadata
     id="metadata5973">
    <rdf:RDF>
      <cc:Work
         rdf:about="">
        <dc:format>image/svg+xml</dc:format>
        <dc:type
           rdf:resource="http://purl.org/dc/dcmitype/StillImage" />
        <dc:title></dc:title>
      </cc:Work>
    </rdf:RDF>
  </metadata>
  <g
     inkscape:label="Layer 1"
     inkscape:groupmode="layer"
     id="layer1"
     transform="translate(-24.994419,-109.5718)">
    <ellipse
       style="opacity:1;fill:#00fd00;fill-opacity:1;stroke:none;stroke-width:2.85636973;stroke-linecap:round;stroke-linejoin:round;stroke-miterlimit:4;stroke-dasharray:none;stroke-dashoffset:0;stroke-opacity:1"
       id="ellipse5942"
       cx="48.380951"
       cy="132.95833"
       rx="23.386532"
       ry="23.386524" />
    <g
       style="opacity:0.98999999"
       id="g5928"
       transform="matrix(0.04301636,0,0,0.04301636,37.368796,121.94827)">
      <g
         id="g5926">
        <g
           id="g5924">
          <path
             id="path5922"
             d="m 460.2,272.6 h -52.3 v -15.7 c 0,-11.3 -9.1,-20.4 -20.4,-20.4 -11.3,0 -20.4,9.1 -20.4,20.4 v 15.7 H 145 v -15.7 c 0,-11.3 -9.1,-20.4 -20.4,-20.4 -11.3,0 -20.4,9.1 -20.4,20.4 v 15.7 H 51.8 V 136.3 H 460.1 V 272.6 Z M 51.8,460.2 V 313.5 h 52.3 v 15.7 c 0,11.3 9.1,20.4 20.4,20.4 11.3,0 20.4,-9.1 20.4,-20.4 v -15.7 h 222 v 15.7 c 0,11.3 9.1,20.4 20.4,20.4 11.3,0 20.4,-9.1 20.4,-20.4 V 313.5 H 460 V 460.2 Z M 182.6,51.8 H 314.4 V 93.6 H 182.6 Z m 298,43.6 H 355.2 V 43.3 C 355.2,25.5 340.7,11 322.9,11 H 174.1 c -17.8,0 -32.3,14.5 -32.3,32.3 V 95.4 H 31.4 C 20.1,95.4 11,104.5 11,115.8 v 364.7 c 0,11.3 9.1,20.4 20.4,20.4 h 449.2 c 11.3,0 20.4,-9.1 20.4,-20.4 V 115.8 c 0,-11.2 -9.1,-20.4 -20.4,-20.4 z"
             inkscape:connector-curvature="0" />
        </g>
      </g>
    </g>
  </g>
</svg>
