<?xml version="1.0" encoding="UTF-8" standalone="no"?>
<!-- Created with Inkscape (http://www.inkscape.org/) -->

<svg
   xmlns:dc="http://purl.org/dc/elements/1.1/"
   xmlns:cc="http://creativecommons.org/ns#"
   xmlns:rdf="http://www.w3.org/1999/02/22-rdf-syntax-ns#"
   xmlns:svg="http://www.w3.org/2000/svg"
   xmlns="http://www.w3.org/2000/svg"
   xmlns:sodipodi="http://sodipodi.sourceforge.net/DTD/sodipodi-0.dtd"
   xmlns:inkscape="http://www.inkscape.org/namespaces/inkscape"
   width="46.773064mm"
   height="46.773048mm"
   viewBox="0 0 46.773064 46.773048"
   version="1.1"
   id="svg3965"
   inkscape:version="0.92.4 (5da689c313, 2019-01-14)"
   sodipodi:docname="certificate.svg">
  <defs
     id="defs3959" />
  <sodipodi:namedview
     id="base"
     pagecolor="#ffffff"
     bordercolor="#666666"
     borderopacity="1.0"
     inkscape:pageopacity="0.0"
     inkscape:pageshadow="2"
     inkscape:zoom="0.35"
     inkscape:cx="-917.32425"
     inkscape:cy="132.03928"
     inkscape:document-units="mm"
     inkscape:current-layer="layer1"
     showgrid="false"
     inkscape:window-width="1920"
     inkscape:window-height="1016"
     inkscape:window-x="1680"
     inkscape:window-y="27"
     inkscape:window-maximized="1" />
  <metadata
     id="metadata3962">
    <rdf:RDF>
      <cc:Work
         rdf:about="">
        <dc:format>image/svg+xml</dc:format>
        <dc:type
           rdf:resource="http://purl.org/dc/dcmitype/StillImage" />
        <dc:title />
      </cc:Work>
    </rdf:RDF>
  </metadata>
  <g
     inkscape:label="Layer 1"
     inkscape:groupmode="layer"
     id="layer1"
     transform="translate(30.946055,-136.99568)">
    <ellipse
       ry="23.386524"
       rx="23.386532"
       cy="160.3822"
       cx="-7.5595236"
       id="ellipse3855"
       style="opacity:1;fill:#00fd00;fill-opacity:1;stroke:none;stroke-width:2.85636973;stroke-linecap:round;stroke-linejoin:round;stroke-miterlimit:4;stroke-dasharray:none;stroke-dashoffset:0;stroke-opacity:1" />
    <g
       style="opacity:0.98999999"
       id="g3853"
       transform="matrix(0.04557141,0,0,0.04557141,-18.496687,149.44505)">
      <g
         id="g3724">
        <g
           id="g3722">
          <rect
             id="rect3720"
             height="16"
             width="16"
             y="325.35199"
             x="232" />
        </g>
      </g>
      <g
         id="g3730">
        <g
           id="g3728">
          <path
             id="path3726"
             d="m 240,293.352 c -22.091,0 -40,17.909 -40,40 0,22.091 17.909,40 40,40 22.091,0 40,-17.909 40,-40 -0.026,-22.08 -17.919,-39.974 -40,-40 z m 0,64 c -13.255,0 -24,-10.745 -24,-24 0,-13.255 10.745,-24 24,-24 13.255,0 24,10.745 24,24 0,13.255 -10.745,24 -24,24 z"
             inkscape:connector-curvature="0" />
        </g>
      </g>
      <g
         id="g3736">
        <g
           id="g3734">
          <path
             id="path3732"
             d="M 472,0 H 8 C 3.582,0 0,3.582 0,8 v 368 c 0,4.418 3.582,8 8,8 h 165.04 l -1.296,8.504 c -0.655,4.37 2.357,8.442 6.726,9.097 0.788,0.118 1.59,0.118 2.378,-10e-4 L 192,399.92 V 472 c 0.001,4.418 3.583,8 8.001,7.999 1.314,0 2.608,-0.324 3.767,-0.943 L 240,459.712 l 36.232,19.344 c 3.898,2.081 8.744,0.608 10.825,-3.289 C 287.676,474.608 288,473.314 288,472 v -72.08 l 11.152,1.696 c 4.369,0.66 8.445,-2.347 9.105,-6.716 0.12,-0.794 0.12,-1.602 -0.001,-2.396 L 306.96,384 H 472 c 4.418,0 8,-3.582 8,-8 V 8 c 0,-4.418 -3.581,-8 -8,-8 z m -200,458.664 -28.232,-15.08 c -2.355,-1.257 -5.181,-1.257 -7.536,0 L 208,458.664 V 397.48 l 5.8,-0.88 19.752,26.848 c 2.615,3.561 7.622,4.328 11.183,1.713 0.654,-0.481 1.232,-1.058 1.713,-1.713 L 266.2,396.6 l 5.8,0.88 z m 17.864,-109.096 c -2.381,1.759 -3.597,4.688 -3.16,7.616 l 4.104,26.984 -26.976,-4.112 c -2.946,-0.42 -5.885,0.809 -7.656,3.2 L 240,405.208 223.824,383.2 c -1.509,-2.049 -3.903,-3.258 -6.448,-3.256 -0.404,0.002 -0.808,0.031 -1.208,0.088 l -26.976,4.112 4.104,-26.984 c 0.449,-2.938 -0.768,-5.884 -3.16,-7.648 l -21.984,-16.184 21.984,-16.184 c 2.39,-1.763 3.606,-4.704 3.16,-7.64 l -4.104,-26.984 26.976,4.112 c 2.946,0.423 5.887,-0.806 7.656,-3.2 L 240,261.496 l 16.176,21.992 c 1.77,2.393 4.71,3.622 7.656,3.2 l 26.976,-4.112 -4.104,26.984 c -0.446,2.936 0.77,5.877 3.16,7.64 l 21.984,16.184 z M 147.28,336 H 80 v -24 c 0,-4.418 -3.582,-8 -8,-8 H 48 V 80 h 24 c 4.418,0 8,-3.582 8,-8 V 48 h 320 v 24 c 0,4.418 3.582,8 8,8 h 24 v 224 h -24 c -4.418,0 -8,3.582 -8,8 v 24 h -67.28 c 0.362,-0.84 0.576,-1.735 0.632,-2.648 -0.013,-2.528 -1.22,-4.901 -3.256,-6.4 l -26.856,-19.76 5.016,-32.952 c 0.664,-4.368 -2.339,-8.447 -6.708,-9.111 -0.794,-0.121 -1.602,-0.121 -2.396,-0.001 l -32.952,5.024 -19.752,-26.856 c -2.897,-3.561 -8.132,-4.1 -11.693,-1.203 -0.441,0.359 -0.844,0.762 -1.203,1.203 l -19.752,26.856 -32.952,-5.024 c -4.369,-0.66 -8.445,2.347 -9.105,6.716 -0.12,0.794 -0.12,1.602 0.001,2.396 l 5.016,32.952 -26.856,19.76 c -2.036,1.499 -3.243,3.872 -3.256,6.4 0.056,0.913 0.27,1.808 0.632,2.648 z M 464,368 H 304.528 L 303.24,359.56 313.512,352 H 408 c 4.418,0 8,-3.582 8,-8 v -24 h 24 c 4.418,0 8,-3.582 8,-8 V 72 c 0,-4.418 -3.582,-8 -8,-8 H 416 V 40 c 0,-4.418 -3.582,-8 -8,-8 H 72 c -4.418,0 -8,3.582 -8,8 V 64 H 40 c -4.418,0 -8,3.582 -8,8 v 240 c 0,4.418 3.582,8 8,8 h 24 v 24 c 0,4.418 3.582,8 8,8 h 94.488 l 10.272,7.56 -1.288,8.44 H 16 V 16 h 448 z"
             inkscape:connector-curvature="0" />
        </g>
      </g>
      <g
         id="g3742">
        <g
           id="g3740">
          <path
             id="path3738"
             d="m 240,64 c -17.673,0 -32,14.327 -32,32 0,17.673 14.327,32 32,32 17.673,0 32,-14.327 32,-32 0,-17.673 -14.327,-32 -32,-32 z m 0,48 c -8.837,0 -16,-7.163 -16,-16 0,-8.837 7.163,-16 16,-16 8.837,0 16,7.163 16,16 0,8.837 -7.163,16 -16,16 z"
             inkscape:connector-curvature="0" />
        </g>
      </g>
      <g
         id="g3748">
        <g
           id="g3746">
          <rect
             id="rect3744"
             height="16"
             width="96"
             y="144"
             x="192" />
        </g>
      </g>
      <g
         id="g3754">
        <g
           id="g3752">
          <rect
             id="rect3750"
             height="16"
             width="288"
             y="176"
             x="96" />
        </g>
      </g>
      <g
         id="g3760">
        <g
           id="g3758">
          <rect
             id="rect3756"
             height="16"
             width="288"
             y="208"
             x="96" />
        </g>
      </g>
      <g
         id="g3766">
        <g
           id="g3764">
          <rect
             id="rect3762"
             height="16"
             width="56"
             y="272"
             x="96" />
        </g>
      </g>
      <g
         id="g3772">
        <g
           id="g3770">
          <rect
             id="rect3768"
             height="16"
             width="56"
             y="272"
             x="328" />
        </g>
      </g>
      <g
         id="g3774" />
      <g
         id="g3776" />
      <g
         id="g3778" />
      <g
         id="g3780" />
      <g
         id="g3782" />
      <g
         id="g3784" />
      <g
         id="g3786" />
      <g
         id="g3788" />
      <g
         id="g3790" />
      <g
         id="g3792" />
      <g
         id="g3794" />
      <g
         id="g3796" />
      <g
         id="g3798" />
      <g
         id="g3800" />
      <g
         id="g3802" />
    </g>
  </g>
</svg>
