<?xml version="1.0" encoding="UTF-8" standalone="no"?>
<!-- Created with Inkscape (http://www.inkscape.org/) -->

<svg
   xmlns:dc="http://purl.org/dc/elements/1.1/"
   xmlns:cc="http://creativecommons.org/ns#"
   xmlns:rdf="http://www.w3.org/1999/02/22-rdf-syntax-ns#"
   xmlns:svg="http://www.w3.org/2000/svg"
   xmlns="http://www.w3.org/2000/svg"
   xmlns:sodipodi="http://sodipodi.sourceforge.net/DTD/sodipodi-0.dtd"
   xmlns:inkscape="http://www.inkscape.org/namespaces/inkscape"
   width="54.2286mm"
   height="54.228584mm"
   viewBox="0 0 54.2286 54.228584"
   version="1.1"
   id="svg20085"
   inkscape:version="0.92.4 (5da689c313, 2019-01-14)"
   sodipodi:docname="email.svg">
  <defs
     id="defs20079" />
  <sodipodi:namedview
     id="base"
     pagecolor="#ffffff"
     bordercolor="#666666"
     borderopacity="1.0"
     inkscape:pageopacity="0.0"
     inkscape:pageshadow="2"
     inkscape:zoom="0.35"
     inkscape:cx="91.050684"
     inkscape:cy="-151.80648"
     inkscape:document-units="mm"
     inkscape:current-layer="layer1"
     showgrid="false"
     inkscape:window-width="1920"
     inkscape:window-height="1016"
     inkscape:window-x="1680"
     inkscape:window-y="27"
     inkscape:window-maximized="1" />
  <metadata
     id="metadata20082">
    <rdf:RDF>
      <cc:Work
         rdf:about="">
        <dc:format>image/svg+xml</dc:format>
        <dc:type
           rdf:resource="http://purl.org/dc/dcmitype/StillImage" />
        <dc:title></dc:title>
      </cc:Work>
    </rdf:RDF>
  </metadata>
  <g
     inkscape:label="Layer 1"
     inkscape:groupmode="layer"
     id="layer1"
     transform="translate(108.00121,-54.439286)">
    <g
       style="opacity:0.98999999"
       id="g3111"
       transform="matrix(0.73242466,0,0,0.73242466,1179.3824,-2241.2606)">
      <ellipse
         ry="37.019905"
         rx="37.019917"
         cy="3171.4036"
         cx="-1720.6812"
         id="ellipse3016"
         style="opacity:1;fill:#fd30fd;fill-opacity:1;stroke:none;stroke-width:4.52151537;stroke-linecap:round;stroke-linejoin:round;stroke-miterlimit:4;stroke-dasharray:none;stroke-dashoffset:0;stroke-opacity:1" />
      <g
         transform="matrix(0.08112168,0,0,0.08112168,-1740.2842,3151.8005)"
         id="g3088">
        <g
           id="g3030">
          <g
             id="g3028">
            <path
               inkscape:connector-curvature="0"
               d="M 424.3,57.75 H 59.1 C 26.5,57.75 0,84.25 0,116.85 v 249.6 c 0,32.6 26.5,59.1 59.1,59.1 h 365.1 c 32.6,0 59.1,-26.5 59.1,-59.1 v -249.5 c 0.1,-32.6 -26.4,-59.2 -59,-59.2 z m 32.1,308.7 c 0,17.7 -14.4,32.1 -32.1,32.1 H 59.1 c -17.7,0 -32.1,-14.4 -32.1,-32.1 v -249.5 c 0,-17.7 14.4,-32.1 32.1,-32.1 h 365.1 c 17.7,0 32.1,14.4 32.1,32.1 v 249.5 z"
               id="path3024" />
            <path
               inkscape:connector-curvature="0"
               d="m 304.8,238.55 118.2,-106 c 5.5,-5 6,-13.5 1,-19.1 -5,-5.5 -13.5,-6 -19.1,-1 l -163,146.3 -31.8,-28.4 c -0.1,-0.1 -0.2,-0.2 -0.2,-0.3 -0.7,-0.7 -1.4,-1.3 -2.2,-1.9 L 78.3,112.35 c -5.6,-5 -14.1,-4.5 -19.1,1.1 -5,5.6 -4.5,14.1 1.1,19.1 l 119.6,106.9 -119.1,111.5 c -5.4,5.1 -5.7,13.6 -0.6,19.1 2.7,2.8 6.3,4.3 9.9,4.3 3.3,0 6.6,-1.2 9.2,-3.6 l 120.9,-113.1 32.8,29.3 c 2.6,2.3 5.8,3.4 9,3.4 3.2,0 6.5,-1.2 9,-3.5 l 33.7,-30.2 120.2,114.2 c 2.6,2.5 6,3.7 9.3,3.7 3.6,0 7.1,-1.4 9.8,-4.2 5.1,-5.4 4.9,-14 -0.5,-19.1 z"
               id="path3026" />
          </g>
        </g>
        <g
           id="g3032" />
        <g
           id="g3034" />
        <g
           id="g3036" />
        <g
           id="g3038" />
        <g
           id="g3040" />
        <g
           id="g3042" />
        <g
           id="g3044" />
        <g
           id="g3046" />
        <g
           id="g3048" />
        <g
           id="g3050" />
        <g
           id="g3052" />
        <g
           id="g3054" />
        <g
           id="g3056" />
        <g
           id="g3058" />
        <g
           id="g3060" />
      </g>
    </g>
  </g>
</svg>
