<?xml version="1.0" encoding="UTF-8" standalone="no"?>
<!-- Created with Inkscape (http://www.inkscape.org/) -->

<svg
   xmlns:dc="http://purl.org/dc/elements/1.1/"
   xmlns:cc="http://creativecommons.org/ns#"
   xmlns:rdf="http://www.w3.org/1999/02/22-rdf-syntax-ns#"
   xmlns:svg="http://www.w3.org/2000/svg"
   xmlns="http://www.w3.org/2000/svg"
   xmlns:sodipodi="http://sodipodi.sourceforge.net/DTD/sodipodi-0.dtd"
   xmlns:inkscape="http://www.inkscape.org/namespaces/inkscape"
   width="46.773064mm"
   height="46.773048mm"
   viewBox="0 0 46.773064 46.773048"
   version="1.1"
   id="svg5323"
   inkscape:version="0.92.4 (5da689c313, 2019-01-14)"
   sodipodi:docname="flute.svg">
  <defs
     id="defs5317" />
  <sodipodi:namedview
     id="base"
     pagecolor="#ffffff"
     bordercolor="#666666"
     borderopacity="1.0"
     inkscape:pageopacity="0.0"
     inkscape:pageshadow="2"
     inkscape:zoom="0.35"
     inkscape:cx="-1105.8957"
     inkscape:cy="319.81858"
     inkscape:document-units="mm"
     inkscape:current-layer="layer1"
     showgrid="false"
     inkscape:window-width="1920"
     inkscape:window-height="1016"
     inkscape:window-x="1680"
     inkscape:window-y="27"
     inkscape:window-maximized="1" />
  <metadata
     id="metadata5320">
    <rdf:RDF>
      <cc:Work
         rdf:about="">
        <dc:format>image/svg+xml</dc:format>
        <dc:type
           rdf:resource="http://purl.org/dc/dcmitype/StillImage" />
        <dc:title></dc:title>
      </cc:Work>
    </rdf:RDF>
  </metadata>
  <g
     inkscape:label="Layer 1"
     inkscape:groupmode="layer"
     id="layer1"
     transform="translate(-208.69085,-186.67895)">
    <ellipse
       ry="23.386524"
       rx="23.386532"
       cy="210.06548"
       cx="232.07738"
       id="ellipse5213"
       style="opacity:1;fill:#00fd00;fill-opacity:1;stroke:none;stroke-width:2.85636973;stroke-linecap:round;stroke-linejoin:round;stroke-miterlimit:4;stroke-dasharray:none;stroke-dashoffset:0;stroke-opacity:1" />
    <g
       style="opacity:0.98999999"
       id="g1495"
       transform="matrix(0.04731664,0,0,0.04731664,219.96428,198.35268)">
      <path
         id="path1463"
         d="m 454.72266,54.941406 c -3.08204,-2.515625 -8.4375,-4.8125 -16.42579,-1.464844 -5.92578,2.484376 -12.61718,7.96875 -18.35546,15.042969 -5.42188,6.6875 -8.91016,13.378907 -9.33594,17.902344 -0.13672,1.480469 -0.19922,3.691406 0.87109,5.808594 1.56641,3.105469 4.83203,4.800781 8.9336,4.800781 1.28125,0 2.64453,-0.167969 4.0625,-0.507812 4.01172,-0.957032 11.62109,-5.554688 18.51171,-11.175782 6.08594,-4.964844 13.6836,-12.386718 15.32032,-19.554687 0.98437,-4.3125 -0.28907,-8.167969 -3.58203,-10.851563 z M 450.44141,64 c -1.98438,8.707031 -22.27735,23.351562 -27.84375,24.683594 -2.23047,0.53125 -3.70704,0.160156 -3.92579,-0.08594 -0.0156,-0.03125 -0.14062,-0.328125 -0.0391,-1.421875 0.51172,-5.433593 11.85547,-21.683593 22.78125,-26.257812 5.20313,-2.183594 7.46875,-0.335938 8.21485,0.273437 0.77734,0.632813 1.16015,1.296875 0.8125,2.808594 z m 0,0"
         inkscape:connector-curvature="0" />
      <path
         id="path1465"
         d="M 511.64062,26.59375 C 506.05078,14.261719 494.98437,4.539062 482.03516,0.582031 c -1.46875,-0.449219 -3.07813,-0.808593 -4.88282,-0.410156 -2.19531,0.480469 -3.66015,1.863281 -4.625,2.78125 L 444.5,29.5 c -1.34375,0.07422 -2.65234,0.246094 -3.91016,0.53125 -7.92187,1.785156 -14.85937,8.863281 -20.4375,14.554688 -1.40234,1.4375 -2.73437,2.789062 -3.96093,3.945312 -8.50391,8.003906 -16.75391,16.464844 -24.52735,25.144531 -2.67187,2.984375 -5.17187,5.988281 -6.375,9.882813 -0.66797,2.160156 -0.85156,4.277344 -0.69531,6.355468 -0.33203,0.160157 -0.65625,0.351563 -0.94531,0.613282 -45.06641,40.550776 -89.5625,81.828126 -133.33594,123.281246 -2.28516,-2.39453 -5.32031,-4.05859 -8.58203,-4.64453 -5.04688,-0.90625 -9.57422,0.78516 -12.47656,2.35938 -3.53516,1.91797 -6.44532,4.57031 -8.89453,6.90234 -3.63672,3.46484 -7.67188,7.62891 -9.5625,13.19922 -2.08985,6.14844 -0.6875,12.69531 3.36718,16.59375 -3.32422,3.17969 -6.625,6.35937 -9.9375,9.54297 -2.55859,-2 -5.94922,-4.42969 -10.23047,-4.67969 -6.05859,-0.36328 -10.89843,3.89063 -13.78515,6.42578 l -7.70703,6.77344 c -3.35547,2.94531 -7.52735,6.61328 -9.42578,11.85547 -1.86329,5.14453 -0.72657,12.01172 4.03515,15.42187 -12.51172,12.13672 -24.9375,24.25 -37.30078,36.34375 -3.04297,-2.6875 -7.42969,-5.50781 -12.64062,-4.53906 -3.78907,0.70703 -6.54688,3.23047 -8.5586,5.07422 -24.292968,22.25391 -48.656249,45.08594 -72.42578,67.86328 -0.02344,0.0234 -0.04297,0.0508 -0.06641,0.0781 -5.816406,0.66015 -11.53125,3.71875 -15.808594,8.49609 -8.328125,9.30859 -9.742188,23.79687 -3.417969,34.55469 -3.835937,3.8164 -7.683593,7.64843 -11.5,11.44922 -1.894531,1.88671 -4.753906,4.73828 -5.300781,8.78906 -0.703125,5.18359 2.765625,9.44922 4.429688,11.5 4.507812,5.55078 9.460937,10.8164 14.726562,15.66015 3.367188,3.09766 7.496094,6.25391 12.613281,6.25391 h 0.144531 c 4.28125,-0.0508 7.75,-2.26562 10.9375,-4.53125 15.296876,-10.87891 29.980469,-22.91406 43.664063,-35.76562 3.0625,2.44531 6.960937,4.08984 11.210937,4.58984 1.023438,0.12109 2.058594,0.17969 3.113282,0.17969 4.53125,0 9.40625,-1.11328 14.80079,-3.36719 4.6289,-1.9375 8.08984,-4.03906 10.89453,-6.61719 7.22265,-6.64062 10.02734,-17.52344 7.41797,-26.92187 0.14453,0.0195 0.28906,0.0469 0.4375,0.0625 1.01953,0.12109 2.05859,0.18359 3.11328,0.18359 4.53125,-0.004 9.40625,-1.11328 14.80078,-3.36719 4.6289,-1.9375 8.08984,-4.03906 10.89453,-6.61718 6.02344,-5.54297 8.96875,-14.03907 8.26562,-22.16407 11.8711,-9.96093 23.78125,-20.16015 35.42969,-30.34375 1.35547,-1.18359 3.875,-3.38672 4.19531,-6.80078 0.19922,-2.125 -0.57421,-3.96875 -0.98828,-4.96094 -1.18359,-2.83203 -2.59375,-5.58593 -4.1875,-8.21484 10.17188,-9.71484 20.33985,-19.45312 30.5,-29.22266 0.71094,0.41016 1.46875,0.98047 2.25782,1.58594 2.03906,1.5625 4.57421,3.50781 8.03125,3.70313 0.18359,0.0117 0.37109,0.0156 0.55078,0.0156 1.84375,0 3.5,-0.51172 4.89843,-1.02734 8.5586,-3.15235 15.85157,-9.19922 20.53516,-17.02344 2.41406,-4.03516 3.69141,-7.81641 3.89844,-11.56641 0.23437,-4.17578 -1.02344,-8.21484 -3.40235,-11.18359 2.75782,-2.67187 5.51563,-5.33984 8.26953,-8.01562 2.39063,2.96875 6.08985,3.03906 8.96485,3.08203 0.0859,0.004 0.16406,0.004 0.25,0.004 4.92578,0 9.21094,-2.29687 12.02344,-4.03515 6.98046,-4.31641 12.9414,-10.29297 17.24609,-17.28516 1.32812,-2.16016 2.72656,-4.78906 3,-7.91016 0.37891,-4.29687 -1.45703,-8.01953 -3.42578,-10.96875 37.49609,-36.71484 74.72656,-73.625 111.5039,-110.55468 0.64844,-0.65235 1.01563,-1.47266 1.125,-2.32032 6.3711,-3.44531 11.5625,-8.42578 15.96875,-12.91796 8.66407,-8.824222 16.82032,-18.320316 24.23829,-28.218754 3.04297,-4.0625 6.10937,-8.472656 7.20312,-13.8125 0.13281,-0.636718 0.22266,-1.277344 0.29297,-1.917968 0.45703,-0.257813 0.87891,-0.589844 1.21484,-1.03125 8.30079,-10.804738 18.11329,-20.320363 29.16797,-28.2813 1.5625,-1.113282 2.11328,-3.179688 1.32031,-4.929688 z M 218.42969,234.22266 c 1.30468,-3.84375 4.55078,-7.15235 7.49218,-9.95704 2.07032,-1.97656 4.50782,-4.20703 7.17188,-5.65234 2.50781,-1.35937 5.07031,-1.89453 7.21484,-1.51172 1.55469,0.27735 3.04688,1.10156 4.15625,2.25 -8.17578,7.75781 -16.32422,15.51563 -24.44531,23.27735 -2.26172,-1.83594 -2.53125,-5.64454 -1.58984,-8.40625 z m -46.16797,53.05468 c -1.90625,-0.83593 -2.42578,-4.12109 -1.60156,-6.39453 1.19531,-3.29687 4.36718,-6.08594 7.16406,-8.54297 l 7.71094,-6.77343 c 2.64453,-2.32813 5.43359,-4.57422 7.99218,-4.4375 1.51172,0.0898 3.09766,1.02734 4.8125,2.28906 -8.44922,8.125 -16.86328,16.24609 -25.24609,24.35937 -0.25391,-0.1914 -0.52734,-0.36718 -0.83203,-0.5 z m -58.20313,49.10547 c 1.36719,-1.25 3.06641,-2.80859 4.58594,-3.08984 1.67188,-0.3125 3.54297,0.74609 5.3711,2.27734 -23.78125,23.28516 -47.273442,46.45703 -70.433599,69.41406 -1.933593,-2.2539 -4.453125,-4.02734 -7.277343,-5.1875 C 68.59375,378.5 91.351562,357.1875 114.05859,336.38281 Z m 0.83594,19.76953 15.80078,16.60938 c -3.28515,2.68359 -6.15625,6.05859 -8.46484,9.83203 l -16.61328,-17.66797 c 3.03515,-2.98437 6.08203,-5.97656 9.1289,-8.96875 0.0508,0.0625 0.0937,0.13281 0.14844,0.19531 z m -28.046874,61.14453 c -5.738281,-5.61718 -11.128906,-11.66406 -16.0625,-18 2.707032,-2.67968 5.398438,-5.34765 8.113282,-8.03125 5.023437,6.07422 10.339843,11.97266 15.867187,17.59766 -2.992187,2.3125 -5.675781,5.1875 -7.917969,8.43359 z m 15.148434,-12.57421 c -6.066402,-6.07422 -11.882809,-12.50391 -17.335934,-19.14063 5.058594,-4.99609 10.117188,-9.99219 15.207032,-15 l 18.234372,19.39063 c 0.13282,0.14062 0.28125,0.2539 0.42969,0.37109 -1.14453,3.22266 -1.88672,6.57813 -2.125,9.94141 -0.11328,1.60547 -0.10547,3.10937 0.008,4.53125 -4.67578,-1.53907 -9.71875,-1.76953 -14.41797,-0.0937 z m -75.671871,7.53125 c 3.113281,-3.48047 7.226562,-5.64063 11.28125,-5.92188 3.996093,-0.28515 8.039062,1.47266 10.210937,4.36719 -8.355468,8.28906 -16.660156,16.54297 -24.929687,24.76953 -3.355469,-7.48828 -2.042969,-17.08984 3.4375,-23.21484 z m 11.945312,71.72656 c -2.234375,1.58984 -4.402343,3.01953 -6.355469,3.04297 -0.01562,0 -0.03516,0 -0.05078,0 -2.34375,0 -4.824219,-1.98438 -7.15625,-4.12891 -4.976562,-4.57812 -9.660156,-9.55859 -13.925781,-14.80859 -1.449219,-1.78516 -2.902344,-3.8125 -2.699219,-5.33594 0.183594,-1.34766 1.8125,-2.97266 3.003907,-4.16016 17.761718,-17.69921 35.765624,-35.58984 53.9375,-53.58593 5.242187,6.66406 10.953124,13.02734 17.039062,18.91406 0.242188,0.23437 0.511719,0.41797 0.792969,0.58203 -1.710938,3.96875 -2.808594,8.20313 -3.109375,12.44922 -0.320313,4.55078 0.265625,8.32812 1.792968,11.54687 -13.546874,12.76172 -28.101562,24.69922 -43.269532,35.48438 z m 82.902349,-40.34375 c -2.09375,1.92578 -4.8086,3.55078 -8.54688,5.11328 -5.33594,2.23437 -9.87109,3.08984 -13.859375,2.62109 -4.453125,-0.52734 -8.351563,-3 -9.929687,-6.30078 -0.929688,-1.9375 -1.269532,-4.40625 -1.046876,-7.55078 0.722657,-10.25391 7.136719,-20.38672 15.593748,-24.64062 1.70703,-0.85547 3.5586,-1.24219 5.44922,-1.24219 6.51563,0 13.46094,4.57422 16.28125,10.10547 3.61328,7.09375 1.92188,16.50781 -3.9414,21.89453 z m 36.66406,-36.66016 c -2.09375,1.92578 -4.8086,3.55078 -8.54688,5.11328 -5.33984,2.23047 -9.87109,3.08594 -13.85937,2.61719 -4.45313,-0.52344 -8.35156,-2.99609 -9.92969,-6.29687 -0.92969,-1.9375 -1.26953,-4.41016 -1.05078,-7.55469 0.72656,-10.25391 7.14062,-20.38281 15.59765,-24.63672 1.70704,-0.85547 3.5586,-1.24219 5.44922,-1.24219 6.51563,0 13.46094,4.57422 16.27735,10.10547 3.61718,7.09375 1.92187,16.50391 -3.9375,21.89453 z m 44.92187,-55.22265 c 0.21875,0.52343 0.34766,0.88281 0.38672,1.07422 -0.14844,0.28125 -0.64062,0.78906 -1.46484,1.50781 -10.65625,9.3164 -21.53516,18.64062 -32.39844,27.79297 -0.10938,-0.23438 -0.20703,-0.47657 -0.32031,-0.70703 -0.63672,-1.25 -1.40625,-2.45313 -2.27735,-3.59766 11.10938,-10.51953 22.22266,-21.07422 33.32813,-31.66406 1.01953,1.8125 1.94531,3.67968 2.74609,5.59375 z m 65.875,-65.30469 c -0.13281,2.375 -1.0664,5.02344 -2.76953,7.87109 -3.6875,6.16016 -9.66406,11.11719 -16.40234,13.59766 -0.76172,0.28125 -1.625,0.57031 -2.20703,0.53125 -0.97657,-0.0586 -2.23828,-1.02735 -3.57813,-2.05469 -0.39062,-0.29687 -0.79297,-0.60547 -1.21484,-0.91406 8.33594,-8.02344 16.66797,-16.0586 24.98437,-24.10938 0.85938,1.36719 1.29297,3.16797 1.1875,5.07813 z m 46.3711,-45.60547 c -0.12891,1.44922 -1,3.03516 -1.83985,4.39453 -3.64453,5.92578 -8.69922,10.99219 -14.61719,14.65234 -3.17578,1.96485 -5.69531,2.84375 -7.90625,2.82813 -0.95703,-0.0156 -2.36718,-0.0391 -2.88281,-0.19531 -0.043,-0.082 -0.10937,-0.23828 -0.1875,-0.4961 -0.0117,-0.0469 -0.0391,-0.0859 -0.0547,-0.13281 8.73829,-8.49609 17.46485,-17.00391 26.17969,-25.52344 0.87891,1.54688 1.4336,3.04688 1.3086,4.47266 z m -2.85938,-14.23437 c -0.11719,0.0703 -0.23828,0.1289 -0.34765,0.21093 -0.40235,0.30469 -0.72266,0.67969 -0.97266,1.08203 -49.67188,48.60157 -99.79297,96.84375 -149.92578,144.29297 -6.63672,-4.83203 -15.46094,-6.98047 -23.19531,-3.76562 l -16.96485,-17.83594 c -0.0898,-0.0937 -0.1914,-0.16016 -0.28515,-0.24609 85.53906,-83.91407 174.92187,-169.46875 266.61718,-252.042972 1.92188,3.847652 4.69532,7.464842 7.53125,10.785152 3.03907,3.5625 6.48828,7.60157 11.28907,10.10938 3.3125,1.73047 7.125,2.59375 11.11718,2.59375 0.32813,0 0.65235,-0.0156 0.98047,-0.0312 -34.9414,35.02734 -70.27344,70.03125 -105.84375,104.84766 z M 471.75,61.140625 c -0.76172,3.707031 -3.16016,7.128906 -5.75781,10.597656 -7.20313,9.613281 -15.125,18.832031 -23.53907,27.40625 -4.38281,4.460939 -9.5664,9.460939 -15.67578,12.312499 -6.05078,2.82422 -12.46484,3.04688 -17.15234,0.59766 -3.41797,-1.78906 -6.19922,-5.04688 -8.89063,-8.19922 -4.82421,-5.644532 -9.51562,-12.191408 -7.74218,-17.910158 0.72656,-2.347656 2.55078,-4.511718 4.67968,-6.890624 7.61719,-8.507813 15.71094,-16.804688 24.04688,-24.652344 1.34375,-1.265625 2.72656,-2.679688 4.19531,-4.171875 4.83203,-4.933594 10.84375,-11.070313 16.44531,-12.332031 7.13282,-1.605469 17.07032,1.894531 23.6211,8.324218 2.74609,2.691406 7.14844,8.210938 5.76953,14.917969 z m 6.67969,-10.804687 c -1.40235,-3.46875 -3.67578,-6.808594 -6.80078,-9.871094 -4.69141,-4.601563 -10.67969,-7.964844 -16.75,-9.691406 l 23.19531,-21.96875 c 0.19922,-0.1875 0.57812,-0.546876 0.8164,-0.71875 0.14063,0.023437 0.38282,0.085937 0.78907,0.207031 9.73437,2.976562 18.1914,9.871093 23.15625,18.742187 -9.00782,6.808594 -17.1836,14.628906 -24.40625,23.300782 z m 0,0"
         inkscape:connector-curvature="0" />
      <path
         id="path1467"
         d="m 319.37891,175.39453 c -6.07813,-0.94922 -13.16797,2.15234 -17.64063,7.73047 -4.08594,5.10547 -5.16406,11.23828 -2.95703,16.82812 2.12109,5.36719 7.45312,9.17579 12.96875,9.25782 0.0664,0 0.12891,0.004 0.19531,0.004 3.58985,0 7.34375,-1.48047 10.85938,-4.28515 3.14062,-2.50391 5.42187,-5.39844 6.77734,-8.60547 1.64453,-3.89063 1.79688,-8.20703 0.41016,-11.83594 -1.9336,-5.09375 -5.70313,-8.32422 -10.61328,-9.09375 z m 2.77734,17.78906 c -0.8125,1.92969 -2.32813,3.8086 -4.375,5.44141 -1.46875,1.17187 -3.66797,2.55078 -5.91016,2.52734 -2.30078,-0.0352 -4.65234,-1.78515 -5.58984,-4.16015 -1.52734,-3.86719 0.44141,-7.19141 1.75391,-8.82422 2.36328,-2.95313 6.02734,-4.88281 9.07421,-4.88281 0.34766,0 0.69141,0.0234 1.01954,0.0742 2.01171,0.31641 3.42968,1.625 4.33203,3.9961 0.64843,1.71094 0.53906,3.83594 -0.30469,5.82812 z m 0,0"
         inkscape:connector-curvature="0" />
      <path
         id="path1469"
         d="m 290.28125,205.25 c -6.08594,-0.95313 -13.17188,2.15234 -17.63672,7.73437 -4.08984,5.10157 -5.16797,11.23438 -2.96094,16.82422 2.1211,5.36719 7.45313,9.17578 12.96875,9.26172 h 0.19532 c 3.58984,0 7.34375,-1.48047 10.86328,-4.28515 3.14062,-2.50391 5.41797,-5.40235 6.77344,-8.60547 1.64453,-3.89063 1.79687,-8.20313 0.41406,-11.83985 -1.9375,-5.08984 -5.70703,-8.32031 -10.61719,-9.08984 z m 2.77734,17.78906 c -0.8164,1.92578 -2.32812,3.8086 -4.375,5.44141 -1.46875,1.17187 -3.70703,2.5625 -5.91015,2.52734 -2.30078,-0.0352 -4.65235,-1.78515 -5.58985,-4.16015 0,-0.004 0,-0.004 0,-0.004 -1.52734,-3.86328 0.44141,-7.1875 1.75391,-8.82031 2.36328,-2.95313 6.02344,-4.88672 9.07422,-4.88672 0.34765,0 0.6875,0.0273 1.01562,0.0781 2.01563,0.31641 3.4336,1.625 4.33203,3.9961 0.65235,1.71093 0.54297,3.83593 -0.30078,5.82812 z m 0,0"
         inkscape:connector-curvature="0" />
      <path
         id="path1471"
         d="m 258.74219,235.21094 c -6.07813,-0.95703 -13.16797,2.15234 -17.63672,7.73047 -4.08985,5.10546 -5.16797,11.23828 -2.96094,16.82812 2.12109,5.36719 7.45703,9.17578 12.97266,9.25781 h 0.19531 c 3.58984,0 7.33984,-1.47656 10.85937,-4.28125 3.14063,-2.5039 5.42188,-5.40234 6.77344,-8.60547 1.64844,-3.89062 1.79688,-8.20703 0.41406,-11.83984 -1.9375,-5.08984 -5.70703,-8.32031 -10.61718,-9.08984 z M 261.51953,253 c -0.8125,1.92578 -2.32422,3.80859 -4.375,5.44141 -1.44922,1.15625 -3.62891,2.52343 -5.82812,2.52343 -0.0234,0 -0.0508,0 -0.0781,0 -2.30078,-0.0312 -4.65234,-1.78125 -5.58984,-4.16015 -1.52735,-3.86328 0.4414,-7.1875 1.7539,-8.82032 2.63282,-3.29296 6.87891,-5.3125 10.08985,-4.80859 2.01562,0.31641 3.43359,1.62109 4.33203,3.99609 0.65234,1.70704 0.53906,3.83204 -0.30469,5.82813 z m 0,0"
         inkscape:connector-curvature="0" />
      <path
         id="path1473"
         d="m 229.57031,263.19922 c -6.07812,-0.95313 -13.16797,2.15234 -17.63672,7.73047 -4.08593,5.10547 -5.16797,11.23828 -2.96093,16.82812 2.125,5.3711 7.45703,9.17578 12.97265,9.25782 0.0625,0.004 0.12891,0.004 0.19141,0.004 3.58984,0 7.34375,-1.48047 10.86328,-4.28515 3.14062,-2.50391 5.41797,-5.39844 6.77344,-8.60547 1.64453,-3.89063 1.79687,-8.20313 0.41406,-11.83594 -1.9375,-5.09375 -5.70703,-8.32422 -10.61719,-9.09375 z m 2.77735,17.79297 c -0.8125,1.92578 -2.32813,3.80469 -4.375,5.4375 -1.44922,1.15625 -3.63282,2.52734 -5.83204,2.52734 -0.0234,0 -0.0508,0 -0.0781,0 -2.30078,-0.0351 -4.65234,-1.78515 -5.58984,-4.16015 -1.52735,-3.86719 0.44531,-7.1875 1.7539,-8.82422 2.63281,-3.28907 6.88281,-5.3125 10.09375,-4.8086 2.01172,0.31641 3.42969,1.625 4.33203,3.9961 0.65235,1.71093 0.53907,3.83593 -0.30468,5.83203 z m 0,0"
         inkscape:connector-curvature="0" />
      <path
         id="path1475"
         d="m 198.03516,292.37109 c -6.07813,-0.95703 -13.17188,2.15235 -17.64063,7.73047 -4.08594,5.10547 -5.16406,11.23828 -2.95703,16.82813 2.12109,5.36718 7.45312,9.17578 12.96875,9.26172 h 0.19531 c 3.58985,0 7.33985,-1.48047 10.85938,-4.28516 3.14453,-2.50391 5.42187,-5.40234 6.77734,-8.60547 1.64453,-3.88672 1.79297,-8.20312 0.41016,-11.83594 -1.9336,-5.09375 -5.70703,-8.32422 -10.61328,-9.09375 z m 2.77734,17.79297 c -0.81641,1.92578 -2.32813,3.80469 -4.37891,5.4375 -1.46484,1.17188 -3.64062,2.53516 -5.90625,2.52735 -2.30078,-0.0352 -4.65234,-1.78516 -5.59375,-4.16016 -1.52734,-3.86719 0.44532,-7.1875 1.75391,-8.82422 2.63672,-3.28906 6.88281,-5.3125 10.09375,-4.80859 2.01172,0.3164 3.42969,1.625 4.33203,3.99609 0.65234,1.71094 0.54297,3.83594 -0.30078,5.83203 z m 0,0"
         inkscape:connector-curvature="0" />
      <path
         id="path1477"
         d="m 163.34375,326.27344 c -6.08594,-0.95313 -13.17188,2.15234 -17.63672,7.73437 -4.08984,5.10547 -5.16797,11.23828 -2.96094,16.82422 2.1211,5.3711 7.45313,9.17578 12.96875,9.26172 h 0.19532 c 3.58984,0 7.34375,-1.48047 10.85937,-4.28516 3.14063,-2.5039 5.42188,-5.39843 6.77734,-8.60547 1.64454,-3.88671 1.79297,-8.20312 0.41016,-11.83593 -1.93359,-5.09375 -5.70312,-8.32032 -10.61328,-9.09375 z m 2.77734,17.79297 c -0.8164,1.92578 -2.32812,3.80468 -4.3789,5.4414 -1.46485,1.16797 -3.66797,2.56641 -5.90625,2.52344 -2.30078,-0.0352 -4.65235,-1.78516 -5.59375,-4.16016 -1.52344,-3.86328 0.44531,-7.1875 1.75781,-8.82422 2.36328,-2.95312 6.02344,-4.88281 9.07422,-4.88281 0.34765,0 0.6875,0.0274 1.01562,0.0781 2.01563,0.3164 3.42969,1.62109 4.33203,3.99609 0.65235,1.70703 0.54297,3.83203 -0.30078,5.82813 z m 0,0"
         inkscape:connector-curvature="0" />
    </g>
  </g>
</svg>
