<?xml version="1.0" encoding="UTF-8" standalone="no"?>
<!-- Created with Inkscape (http://www.inkscape.org/) -->

<svg
   xmlns:dc="http://purl.org/dc/elements/1.1/"
   xmlns:cc="http://creativecommons.org/ns#"
   xmlns:rdf="http://www.w3.org/1999/02/22-rdf-syntax-ns#"
   xmlns:svg="http://www.w3.org/2000/svg"
   xmlns="http://www.w3.org/2000/svg"
   xmlns:sodipodi="http://sodipodi.sourceforge.net/DTD/sodipodi-0.dtd"
   xmlns:inkscape="http://www.inkscape.org/namespaces/inkscape"
   width="46.773067mm"
   height="46.773045mm"
   viewBox="0 0 46.773067 46.773045"
   version="1.1"
   id="svg12960"
   inkscape:version="0.92.4 (5da689c313, 2019-01-14)"
   sodipodi:docname="highschool.svg">
  <defs
     id="defs12954" />
  <sodipodi:namedview
     id="base"
     pagecolor="#ffffff"
     bordercolor="#666666"
     borderopacity="1.0"
     inkscape:pageopacity="0.0"
     inkscape:pageshadow="2"
     inkscape:zoom="0.35"
     inkscape:cx="-960.18138"
     inkscape:cy="-134.46715"
     inkscape:document-units="mm"
     inkscape:current-layer="layer1"
     showgrid="false"
     inkscape:window-width="1680"
     inkscape:window-height="1013"
     inkscape:window-x="0"
     inkscape:window-y="0"
     inkscape:window-maximized="1" />
  <metadata
     id="metadata12957">
    <rdf:RDF>
      <cc:Work
         rdf:about="">
        <dc:format>image/svg+xml</dc:format>
        <dc:type
           rdf:resource="http://purl.org/dc/dcmitype/StillImage" />
        <dc:title></dc:title>
      </cc:Work>
    </rdf:RDF>
  </metadata>
  <g
     inkscape:label="Layer 1"
     inkscape:groupmode="layer"
     id="layer1"
     transform="translate(-170.13727,-66.48252)">
    <g
       style="opacity:0.98999999"
       id="g1896"
       transform="matrix(0.32734261,0,0,0.32734247,890.59598,-335.51925)">
      <circle
         style="opacity:1;fill:#37abc8;fill-opacity:1;stroke:none;stroke-width:8.72593403;stroke-linecap:round;stroke-linejoin:round;stroke-miterlimit:4;stroke-dasharray:none;stroke-dashoffset:0;stroke-opacity:1"
         id="circle1815"
         cx="-2129.488"
         cy="1299.5206"
         r="71.443596" />
      <g
         transform="matrix(0.15921521,0,0,0.15921521,-2166.779,1262.2297)"
         id="g1813">
        <g
           id="g1755">
          <path
             inkscape:connector-curvature="0"
             d="m 369.919,125.651 c 0,0 -2.58,-92.137 -2.697,-93.246 -0.18,-1.709 -0.625,-3.398 -1.338,-5.016 -1.817,-4.12 -5.13,-7.286 -9.328,-8.915 l -27.3,-10.59 c -4.2,-1.629 -8.781,-1.525 -12.9,0.291 -4.12,1.817 -7.286,5.13 -8.915,9.329 L 288.707,65.79 c -2.858,-0.687 -5.752,-1.277 -8.679,-1.771 V 45.81 C 280.028,20.55 259.478,0 234.218,0 208.958,0 188.407,20.55 188.407,45.81 v 18.21 c -2.935,0.495 -5.837,1.087 -8.702,1.776 L 160.97,17.504 c -1.629,-4.199 -4.795,-7.512 -8.915,-9.329 -4.119,-1.817 -8.7,-1.921 -12.9,-0.291 l -27.3,10.59 c -4.198,1.629 -7.511,4.794 -9.328,8.915 -0.688,1.56 -1.126,3.186 -1.319,4.833 -0.136,1.161 -2.712,93.463 -2.712,93.463 C 86.891,145.12 80.21,167.82 80.21,192.054 v 247.967 c 0,15.667 12.746,28.414 28.414,28.414 h 251.187 c 15.668,0 28.414,-12.747 28.414,-28.414 V 192.055 c 0,-24.249 -6.688,-46.962 -18.306,-66.404 z m -15.634,-21.039 c -2.985,-3.271 -6.138,-6.385 -9.439,-9.337 l 8.508,-21.933 z M 321.425,22.93 c 0.371,-0.956 1.452,-1.431 2.405,-1.061 l 27.3,10.59 c 0.594,0.23 0.888,0.662 1.029,0.982 0.142,0.321 0.262,0.829 0.031,1.423 L 332.538,85.53 C 323.496,79.216 313.621,74.017 303.107,70.146 Z M 234.219,15 c 15.32,0 28.06,11.241 30.415,25.908 -8.16,-7.255 -18.87,-11.639 -30.416,-11.639 -11.32,0 -22.007,4.085 -30.399,11.548 C 206.212,26.195 218.93,15 234.219,15 Z m 28.009,47.266 c -1.28,-0.037 -54.741,-0.037 -56.022,0 1.509,-3.297 3.589,-6.332 6.226,-8.975 5.819,-5.818 13.556,-9.022 21.785,-9.022 12.245,0 23.095,7.318 28.011,17.997 z M 116.252,33.441 c 0.142,-0.321 0.436,-0.752 1.029,-0.982 l 27.3,-10.59 c 0.955,-0.371 2.035,0.106 2.405,1.061 l 18.321,47.225 c -10.514,3.872 -20.388,9.073 -29.429,15.389 L 116.22,34.864 c -0.23,-0.594 -0.11,-1.101 0.032,-1.423 z m -1.194,39.903 8.513,21.947 c -3.302,2.955 -6.456,6.071 -9.442,9.344 z m 258.167,366.678 c 0,7.396 -6.018,13.414 -13.414,13.414 H 108.625 c -7.396,0 -13.414,-6.018 -13.414,-13.414 V 192.055 c 0,-63.329 51.521,-114.85 114.851,-114.85 h 48.314 c 63.328,0 114.85,51.521 114.85,114.85 v 247.967 z"
             id="path1749" />
          <path
             inkscape:connector-curvature="0"
             d="m 132.452,253.728 c -12.107,0 -21.957,9.85 -21.957,21.957 v 141.329 c 0,12.107 9.85,21.957 21.957,21.957 h 203.533 c 12.107,0 21.957,-9.85 21.957,-21.957 V 275.685 c 0,-12.107 -9.85,-21.957 -21.957,-21.957 z M 335.985,423.971 H 132.452 c -3.836,0 -6.957,-3.121 -6.957,-6.957 v -94.267 h 188.801 v 17.055 h 15 v -17.055 h 13.646 v 94.267 c 0,3.836 -3.121,6.957 -6.957,6.957 z m 6.957,-148.286 v 32.062 H 125.495 v -32.062 c 0,-3.836 3.121,-6.957 6.957,-6.957 h 203.533 c 3.836,0 6.957,3.121 6.957,6.957 z"
             id="path1751" />
          <path
             inkscape:connector-curvature="0"
             d="m 281.824,108.039 h -95.211 v 42.828 h 95.211 z m -15,27.828 h -65.211 v -12.828 h 65.211 z"
             id="path1753" />
        </g>
        <g
           id="g1757" />
        <g
           id="g1759" />
        <g
           id="g1761" />
        <g
           id="g1763" />
        <g
           id="g1765" />
        <g
           id="g1767" />
        <g
           id="g1769" />
        <g
           id="g1771" />
        <g
           id="g1773" />
        <g
           id="g1775" />
        <g
           id="g1777" />
        <g
           id="g1779" />
        <g
           id="g1781" />
        <g
           id="g1783" />
        <g
           id="g1785" />
      </g>
    </g>
  </g>
</svg>
