<?xml version="1.0" encoding="UTF-8" standalone="no"?>
<!-- Created with Inkscape (http://www.inkscape.org/) -->

<svg
   xmlns:dc="http://purl.org/dc/elements/1.1/"
   xmlns:cc="http://creativecommons.org/ns#"
   xmlns:rdf="http://www.w3.org/1999/02/22-rdf-syntax-ns#"
   xmlns:svg="http://www.w3.org/2000/svg"
   xmlns="http://www.w3.org/2000/svg"
   xmlns:sodipodi="http://sodipodi.sourceforge.net/DTD/sodipodi-0.dtd"
   xmlns:inkscape="http://www.inkscape.org/namespaces/inkscape"
   width="46.773064mm"
   height="46.773048mm"
   viewBox="0 0 46.773064 46.773048"
   version="1.1"
   id="svg18555"
   inkscape:version="0.92.4 (5da689c313, 2019-01-14)"
   sodipodi:docname="leader.svg">
  <defs
     id="defs18549" />
  <sodipodi:namedview
     id="base"
     pagecolor="#ffffff"
     bordercolor="#666666"
     borderopacity="1.0"
     inkscape:pageopacity="0.0"
     inkscape:pageshadow="2"
     inkscape:zoom="0.35"
     inkscape:cx="-140.1814"
     inkscape:cy="2.6755853"
     inkscape:document-units="mm"
     inkscape:current-layer="layer1"
     showgrid="false"
     inkscape:window-width="1920"
     inkscape:window-height="1016"
     inkscape:window-x="1680"
     inkscape:window-y="27"
     inkscape:window-maximized="1" />
  <metadata
     id="metadata18552">
    <rdf:RDF>
      <cc:Work
         rdf:about="">
        <dc:format>image/svg+xml</dc:format>
        <dc:type
           rdf:resource="http://purl.org/dc/dcmitype/StillImage" />
        <dc:title></dc:title>
      </cc:Work>
    </rdf:RDF>
  </metadata>
  <g
     inkscape:label="Layer 1"
     inkscape:groupmode="layer"
     id="layer1"
     transform="translate(46.821052,-102.7682)">
    <g
       transform="translate(744.3933,-1662.2453)"
       style="opacity:0.98999999"
       id="g18533">
      <ellipse
         style="opacity:1;fill:#fc7d2a;fill-opacity:1;stroke:none;stroke-width:2.8563695;stroke-linecap:round;stroke-linejoin:round;stroke-miterlimit:4;stroke-dasharray:none;stroke-dashoffset:0;stroke-opacity:1"
         id="ellipse2626"
         cx="-767.82782"
         cy="1788.4"
         rx="23.386532"
         ry="23.386524" />
      <g
         transform="matrix(0.0453542,0,0,0.0453542,-781.51912,1774.8236)"
         id="g18508">
        <path
           inkscape:connector-curvature="0"
           d="m 129.78125,159.57812 c 33.07812,0 59.89844,-26.8125 59.89844,-59.898432 0,-33.078126 -26.82032,-59.898438 -59.89844,-59.898438 -33.078125,0 -59.898438,26.820312 -59.898438,59.898438 0.03516,33.070312 26.828126,59.871092 59.898438,59.898432 z m 0,-99.82812 c 22.05078,0 39.93359,17.878906 39.93359,39.929688 0,22.058592 -17.88281,39.933592 -39.93359,39.933592 -22.05469,0 -39.933594,-17.875 -39.933594,-39.933592 C 89.847656,77.628906 107.72656,59.75 129.78125,59.75 Z m 0,0"
           id="path18491" />
        <path
           inkscape:connector-curvature="0"
           d="m 119.79688,409.15625 h 19.96874 v 189.67969 h -19.96874 z m 0,0"
           id="path18493" />
        <path
           inkscape:connector-curvature="0"
           d="M 603.75,69.730469 H 489.17187 V 29.796875 H 339.42578 v -4.988281 c 0,-13.78125 -11.17187,-24.960938 -24.95703,-24.960938 -13.78516,0 -24.95703,11.179688 -24.95703,24.960938 V 179.54687 H 69.882812 C 31.304688,179.58984 0.0429688,210.85547 0,249.42578 v 99.83203 c 0.0351562,27.5586 22.359375,49.88672 49.914062,49.91797 h 9.984376 V 598.83594 H 79.863281 V 239.44531 H 59.898438 v 139.76172 h -9.984376 c -16.539062,0 -29.949218,-13.40234 -29.949218,-29.94922 V 249.42578 C 20,221.875 42.324219,199.54688 69.882812,199.51172 H 339.42578 v 9.98437 c 0,16.54297 -13.41016,29.94922 -29.94922,29.94922 H 179.69531 v 359.39063 h 19.96875 V 259.41016 h 89.84766 v 339.42578 h 49.91406 V 249.16797 c 12.52344,-9.34766 19.92188,-24.03906 19.96875,-39.67188 v -29.94921 h -19.96875 v -29.94922 h 99.83203 v 39.92968 H 603.75 L 579.79297,129.62891 Z M 319.46094,578.87109 h -9.98438 V 259.41016 c 3.35547,0.004 6.69922,-0.32422 9.98438,-0.99219 z m 0,-399.32422 h -9.98438 V 24.808594 c 0,-2.753906 2.23438,-4.992188 4.99219,-4.992188 2.75781,0 4.99219,2.238282 4.99219,4.992188 z M 339.42578,49.765625 H 469.20703 V 129.62891 H 339.42578 Z M 574.25781,169.5625 H 459.22266 v -19.96484 h 29.94921 V 89.699219 h 85.08594 l -15.97265,39.929691 z m 0,0"
           id="path18495" />
      </g>
    </g>
  </g>
</svg>
