<?xml version="1.0" encoding="UTF-8" standalone="no"?>
<!-- Created with Inkscape (http://www.inkscape.org/) -->

<svg
   xmlns:dc="http://purl.org/dc/elements/1.1/"
   xmlns:cc="http://creativecommons.org/ns#"
   xmlns:rdf="http://www.w3.org/1999/02/22-rdf-syntax-ns#"
   xmlns:svg="http://www.w3.org/2000/svg"
   xmlns="http://www.w3.org/2000/svg"
   xmlns:sodipodi="http://sodipodi.sourceforge.net/DTD/sodipodi-0.dtd"
   xmlns:inkscape="http://www.inkscape.org/namespaces/inkscape"
   width="46.773056mm"
   height="46.773056mm"
   viewBox="0 0 46.773056 46.773056"
   version="1.1"
   id="svg13511"
   inkscape:version="0.92.4 (5da689c313, 2019-01-14)"
   sodipodi:docname="university.svg">
  <defs
     id="defs13505" />
  <sodipodi:namedview
     id="base"
     pagecolor="#ffffff"
     bordercolor="#666666"
     borderopacity="1.0"
     inkscape:pageopacity="0.0"
     inkscape:pageshadow="2"
     inkscape:zoom="0.35"
     inkscape:cx="-371.60996"
     inkscape:cy="259.8186"
     inkscape:document-units="mm"
     inkscape:current-layer="layer1"
     showgrid="false"
     inkscape:window-width="1680"
     inkscape:window-height="1013"
     inkscape:window-x="0"
     inkscape:window-y="0"
     inkscape:window-maximized="1" />
  <metadata
     id="metadata13508">
    <rdf:RDF>
      <cc:Work
         rdf:about="">
        <dc:format>image/svg+xml</dc:format>
        <dc:type
           rdf:resource="http://purl.org/dc/dcmitype/StillImage" />
        <dc:title></dc:title>
      </cc:Work>
    </rdf:RDF>
  </metadata>
  <g
     inkscape:label="Layer 1"
     inkscape:groupmode="layer"
     id="layer1"
     transform="translate(-14.411089,-170.80395)">
    <g
       style="opacity:0.98999999"
       id="g1743"
       transform="matrix(0.28563692,0,0,0.28563692,646.05802,-122.61277)">
      <circle
         r="81.875015"
         cy="1109.1117"
         cx="-2129.488"
         id="path1662"
         style="opacity:1;fill:#37abc8;fill-opacity:1;stroke:none;stroke-width:10;stroke-linecap:round;stroke-linejoin:round;stroke-miterlimit:4;stroke-dasharray:none;stroke-dashoffset:0;stroke-opacity:1" />
      <g
         transform="matrix(0.54138401,0,0,0.54138401,-2178.5387,1060.0602)"
         id="g1722">
        <g
           id="g1666">
          <path
             inkscape:connector-curvature="0"
             d="M 176.805,62.738 92.701,34.067 c -1.361,-0.464 -2.834,-0.464 -4.195,0 L 4.402,62.738 C 1.77,63.636 -0.001,66.11 0,68.892 c 0.001,2.783 1.772,5.256 4.407,6.152 l 32.694,11.121 v 33.883 c 0,1.62 0.604,3.181 1.695,4.378 13.356,14.657 32.383,23.063 52.2,23.063 19.622,0 37.853,-7.858 51.333,-22.127 1.141,-1.207 1.775,-2.804 1.775,-4.464 V 86.215 l 13.498,-4.612 v 16.343 c -1.52,1.19 -2.5,3.037 -2.5,5.116 v 15.855 c 0,3.59 2.91,6.5 6.5,6.5 3.59,0 6.5,-2.91 6.5,-6.5 v -15.855 c 0,-2.08 -0.98,-3.927 -2.5,-5.116 V 78.87 l 11.205,-3.828 c 2.631,-0.899 4.399,-3.373 4.398,-6.153 10e-4,-2.781 -1.768,-5.254 -4.4,-6.151 z m -45.7,55.497 c -10.799,10.501 -24.944,16.253 -40.108,16.253 -15.348,0 -30.114,-6.18 -40.896,-17.036 V 90.587 l 38.597,13.128 c 0.679,0.231 1.386,0.346 2.093,0.346 0.71,0 1.421,-0.116 2.102,-0.349 l 38.213,-13.056 v 27.579 z M 90.786,90.694 26.664,68.883 90.603,47.086 154.582,68.897 Z"
             id="path1664" />
        </g>
        <g
           id="g1668" />
        <g
           id="g1670" />
        <g
           id="g1672" />
        <g
           id="g1674" />
        <g
           id="g1676" />
        <g
           id="g1678" />
        <g
           id="g1680" />
        <g
           id="g1682" />
        <g
           id="g1684" />
        <g
           id="g1686" />
        <g
           id="g1688" />
        <g
           id="g1690" />
        <g
           id="g1692" />
        <g
           id="g1694" />
        <g
           id="g1696" />
      </g>
    </g>
  </g>
</svg>
