<?xml version="1.0" encoding="UTF-8" standalone="no"?>
<!-- Created with Inkscape (http://www.inkscape.org/) -->

<svg
   xmlns:dc="http://purl.org/dc/elements/1.1/"
   xmlns:cc="http://creativecommons.org/ns#"
   xmlns:rdf="http://www.w3.org/1999/02/22-rdf-syntax-ns#"
   xmlns:svg="http://www.w3.org/2000/svg"
   xmlns="http://www.w3.org/2000/svg"
   xmlns:sodipodi="http://sodipodi.sourceforge.net/DTD/sodipodi-0.dtd"
   xmlns:inkscape="http://www.inkscape.org/namespaces/inkscape"
   width="222.9285mm"
   height="460.17862mm"
   viewBox="0 0 222.9285 460.17862"
   version="1.1"
   id="svg17882"
   inkscape:version="0.92.4 (5da689c313, 2019-01-14)"
   sodipodi:docname="youjia.svg">
  <defs
     id="defs17876">
    <filter
       inkscape:collect="always"
       style="color-interpolation-filters:sRGB"
       id="filter1869-4"
       x="-0.21006706"
       width="1.4201341"
       y="-0.08398927"
       height="1.1679785">
      <feGaussianBlur
         inkscape:collect="always"
         stdDeviation="14.636131"
         id="feGaussianBlur1871-6" />
    </filter>
  </defs>
  <sodipodi:namedview
     id="base"
     pagecolor="#ffffff"
     bordercolor="#666666"
     borderopacity="1.0"
     inkscape:pageopacity="0.0"
     inkscape:pageshadow="2"
     inkscape:zoom="0.35"
     inkscape:cx="706.99657"
     inkscape:cy="818.20034"
     inkscape:document-units="mm"
     inkscape:current-layer="layer1"
     showgrid="false"
     inkscape:window-width="1920"
     inkscape:window-height="1016"
     inkscape:window-x="1680"
     inkscape:window-y="27"
     inkscape:window-maximized="1" />
  <metadata
     id="metadata17879">
    <rdf:RDF>
      <cc:Work
         rdf:about="">
        <dc:format>image/svg+xml</dc:format>
        <dc:type
           rdf:resource="http://purl.org/dc/dcmitype/StillImage" />
        <dc:title></dc:title>
      </cc:Work>
    </rdf:RDF>
  </metadata>
  <g
     inkscape:label="Layer 1"
     inkscape:groupmode="layer"
     id="layer1"
     transform="translate(270.97022,94.863115)">
    <g
       style="opacity:0.98999999"
       id="g1224"
       transform="matrix(0.63172835,0,0,0.63172835,1162.0857,-575.40872)">
      <g
         transform="matrix(1.5840259,0,0,1.3740707,1221.7971,-420.79437)"
         id="g1210">
        <path
           transform="matrix(0.93813201,0,0,1.0852716,-134.01304,746.98958)"
           style="opacity:1;fill:#ff30ff;fill-opacity:1;stroke:none;stroke-width:4.45848608;stroke-linecap:round;stroke-linejoin:round;stroke-miterlimit:4;stroke-dasharray:none;stroke-dashoffset:0;stroke-opacity:1;filter:url(#filter1869-4)"
           d="m -2170.7478,139.10851 h 167.2167 v 418.22857 h -167.2167 z"
           id="rect3141"
           inkscape:connector-curvature="0" />
        <path
           style="opacity:1;fill:#ff30ff;fill-opacity:1;stroke:none;stroke-width:4.49871635;stroke-linecap:round;stroke-linejoin:round;stroke-miterlimit:4;stroke-dasharray:none;stroke-dashoffset:0;stroke-opacity:1"
           d="m -2170.4612,897.96002 h 156.8713 v 453.89158 h -156.8713 z"
           id="rect3139"
           inkscape:connector-curvature="0" />
      </g>
      <g
         transform="translate(1.9683464,7.450135)"
         id="g1215">
        <path
           inkscape:connector-curvature="0"
           id="path1198"
           style="font-style:normal;font-variant:normal;font-weight:normal;font-stretch:normal;font-size:110.13072968px;line-height:125%;font-family:'迷你简艺黑';-inkscape-font-specification:'迷你简艺黑';text-align:end;letter-spacing:0px;word-spacing:0px;text-anchor:end;fill:#ffffff;fill-opacity:1;stroke:none;stroke-width:2.753268"
           d="m -2042.9292,1000.5296 q 0.8604,3.4416 -0.4302,6.0228 -0.8604,1.7208 -1.7208,3.8717 0,0.4302 0,0.8604 0,2.5812 -3.8718,6.0228 -0.8604,1.2906 -2.151,0.4302 -3.8718,-2.5812 -11.1851,-3.4416 -19.3589,-3.0114 -32.2649,-8.1737 -13.3361,-4.302 -22.8005,-5.5926 l -1.7208,-0.4302 q -0.4302,0 -1.2906,0 -0.8604,0 -2.151,-0.43019 -0.8604,0 -1.2906,0 h -1.2906 -0.8604 q 0,0 -0.8604,0 -0.4301,0.43019 -0.8603,0.43019 0,0 -0.4302,0 -0.4302,0 -0.8604,0 -0.8604,0 -0.8604,0.4302 -0.4302,0 -1.2906,0.4302 -0.4302,0 -0.8604,0.4302 -0.4302,0 -1.2906,0.8604 0,0 0,0.4302 -0.4302,0 -0.4302,0.4302 -1.2906,0 -2.151,-0.4302 0,-0.8604 -0.4302,-1.7208 -0.4302,-1.29059 -0.4302,-3.01139 -0.4302,-1.7208 -0.4302,-3.0114 -0.4302,-3.8718 1.2906,-6.0228 2.5812,-7.3133 2.151,-14.6267 0,-2.151 0.4302,-2.5812 0.4302,-0.4302 2.151,0.4302 1.2906,0.4302 3.0114,0.8604 0.8604,0.4302 1.2905,0.4302 2.5812,0 3.8718,2.5812 0.8604,0.8604 0,4.302 -0.4302,1.2906 -1.2906,3.8718 -0.8604,3.0113 -1.2906,4.3019 3.0114,0.4302 6.0228,0.4302 0,0 0.8604,0 -0.4302,-14.1965 -0.4302,-18.9287 0.4302,-3.8718 -0.4302,-5.1624 0,0 -0.4302,-0.4302 -1.2906,0 -4.302,0.4302 -3.0113,0 -4.3019,0.4302 -6.0228,0.4302 -6.0228,2.151 0,0.8604 -0.8604,0.8604 -0.4302,0 -0.8604,-0.8604 -3.0114,-6.0227 -2.151,-12.4757 0.4302,-1.72081 1.7208,-0.86042 2.5812,0.43022 11.1851,0 0.8604,0 2.5812,-0.4302 1.7208,0 2.151,0 0,-3.87178 0,-8.17376 -0.8604,0.4302 -2.151,0.4302 -9.4643,0.4302 -8.6039,2.15099 -0.4302,1.29059 -0.8604,1.29059 -0.8604,0 -1.2906,-0.86039 -2.151,-6.45298 -2.151,-12.90595 0,-1.29059 1.7208,-0.4302 3.0114,0 9.0341,-0.43019 0.8604,0 2.151,-0.4302 0.8604,0 2.151,-0.4302 0,-9.46436 -0.8604,-14.62674 -0.4302,-1.72079 1.7208,-1.72079 0.8604,0 2.151,0 4.302,-0.4302 7.7436,0.8604 3.0114,1.72079 2.5812,5.16237 0,1.7208 -0.4302,5.59258 -0.4302,3.44158 -0.8604,5.59258 0.8604,0 3.0114,-0.4302 6.4529,-0.4302 6.8831,-0.8604 2.151,-0.4302 2.151,1.72079 0.8604,3.01139 -1.2906,9.46436 0,1.7208 -1.2906,1.2906 -1.7208,-0.8604 -3.8718,-0.8604 -2.5811,0 -6.0227,0 -0.4302,3.44159 -0.4302,8.60396 9.8945,0 11.1851,-0.86039 2.151,-0.4302 2.151,1.72081 0,0.8604 -0.4302,3.0114 -0.4302,3.4416 -0.8604,6.4529 0,1.2906 -1.7208,0.8604 -1.2906,-0.8604 -3.8718,-0.8604 -1.7207,0 -5.1623,0 1.2906,0.8604 0.8604,3.0114 0,0.4302 0,0.4302 -0.8604,2.5812 -0.8604,5.1624 3.8718,0 11.6153,-0.8604 2.151,-0.8604 2.151,1.2906 -0.4302,1.2906 -0.8604,4.7322 -0.4302,3.0114 -0.8604,4.7322 0,0.8604 -1.2906,0.8604 -4.302,0 -10.7549,0 0,3.8717 0,7.3133 18.0683,3.4416 28.393,6.8832 7.3134,3.01139 22.3704,4.30199 6.8831,0 12.0455,-2.58119 2.5812,-0.8604 2.5812,1.29059 z m -35.2763,-19.78909 q -7.7435,8.1737 -10.7549,12.0455 -0.4302,0.8604 -1.2906,0.8604 -0.4302,0 -0.8604,-1.2906 0,-0.8604 -0.4302,-2.5812 -1.2906,-4.7321 -2.151,-7.3133 -1.2906,-1.7208 -0.4302,-6.453 0.4302,-0.8604 0.4302,-0.8604 0,-0.4302 0.8604,0.4302 1.7208,2.151 5.5926,-1.7208 5.5926,-6.453 10.7549,-15.0569 -4.7321,-8.604 -7.3133,-13.33618 -5.5926,-10.32476 -9.0342,-12.90595 -1.2906,-0.86039 -0.8604,-1.72079 0,-0.86039 1.7208,-1.29059 1.2906,0 3.4416,-0.8604 3.0114,-0.4302 4.7322,-0.8604 4.7321,0 6.4529,3.01139 0.8604,2.58119 3.8718,9.46436 2.151,4.30198 3.0114,6.45297 7.7436,-17.20792 8.604,-26.67228 0.8604,-3.01139 3.0114,-1.2906 3.0113,1.2906 8.1737,5.16238 2.5812,1.72079 0.4302,5.59258 -1.2906,2.15099 -5.1624,12.47574 -0.4302,1.7208 -0.8604,2.58119 -3.4415,7.31337 -7.3133,14.62678 0.8604,1.2906 2.151,3.4415 2.151,4.302 7.7435,12.906 1.2906,2.5812 4.302,12.4757 -0.4302,-0.8604 0.4302,1.7208 0,3.8718 -4.302,1.7208 -9.0341,-6.4529 -11.1851,-10.3247 -0.8604,-2.151 -3.0114,-5.5926 -1.7208,-3.8718 -3.0114,-5.5926 -0.8604,0.8604 -1.7208,2.5812 -2.5812,3.8718 -6.0228,8.1738 z" />
        <path
           inkscape:connector-curvature="0"
           id="path1200"
           style="font-style:normal;font-variant:normal;font-weight:normal;font-stretch:normal;font-size:110.13072968px;line-height:125%;font-family:'迷你简艺黑';-inkscape-font-specification:'迷你简艺黑';text-align:end;letter-spacing:0px;word-spacing:0px;text-anchor:end;fill:#ffffff;fill-opacity:1;stroke:none;stroke-width:2.753268"
           d="m -2074.7639,1070.833 q -0.8604,3.0114 -1.2906,8.604 0,4.7322 -0.4302,7.3134 0,0.8604 0,2.151 -0.4302,1.7208 -0.4302,2.5812 4.302,0 6.8832,0 h 6.0228 q 0,-0.4302 0,-0.8604 -0.4302,-0.4302 -0.4302,-0.4302 -0.8604,-1.2906 -1.2906,-4.302 0,-1.2906 0.8604,-3.4416 4.302,-9.8946 4.302,-11.6154 0.4302,-2.151 2.151,-0.8604 4.7321,2.5812 9.0341,3.4416 3.0114,1.2906 0.4302,3.8718 -0.4302,0.8604 -1.2906,2.151 -0.8604,1.7208 -1.7208,2.5812 -0.8604,0.8604 -3.0114,3.4416 -3.0113,4.302 -4.7321,6.0228 1.2906,0 2.5812,-0.4302 6.4529,0 9.8945,-1.2906 1.7208,-0.4302 1.7208,0.8604 0,7.3133 -2.151,13.7663 -0.4302,1.7208 -0.8604,1.7208 -0.4302,0.4302 -1.7208,-0.4302 -2.5812,-2.151 -8.1737,-1.7208 -4.7322,-0.4302 -13.7664,0 -4.7322,0 -6.8832,0 l -1.2905,5.5926 q 0.4301,0 0.8603,-0.4302 0.4302,0 0.4302,0 1.7208,0 4.302,0.4302 2.5812,0.4302 3.8718,0.4302 2.5812,0 3.8718,2.151 0,0.4302 0.4302,1.7208 0,1.2906 0,2.1509 0,5.1624 -1.7208,11.1852 0,0.4302 -0.4302,1.2906 -1.7208,9.4644 -0.4302,14.1965 0.4302,2.151 1.7208,2.151 0.4302,0 0.8604,0.4302 4.7322,1.2906 8.1738,1.2906 10.3247,0 12.9059,-3.4416 0.8604,-0.8604 0.8604,-0.8604 0.4302,0 0.8604,0.8604 0.8604,1.2906 0.8604,3.0114 -1.2906,9.8946 -6.453,15.9174 -1.2906,0.8603 -3.0114,0 -3.8718,-2.5812 -10.7549,-2.5812 -0.8604,0 -3.0114,-0.4302 -3.8718,-0.4302 -6.0228,-0.8604 -3.0114,-0.4302 -5.5926,0 -1.7208,0.8604 -2.151,-1.7208 -2.5811,-4.7322 -2.5811,-8.1738 0,-7.3134 0.8604,-21.9401 0.8604,-9.0342 0.8604,-13.7663 v -0.8604 q -6.453,25.3817 -23.6609,45.1708 -1.2906,1.2906 -2.5812,4.302 -0.8604,1.2905 -1.2906,2.1509 -0.4302,0.8604 -0.8604,0.8604 -0.4302,0 -0.8604,-0.8604 -2.5812,-3.8717 -4.302,-10.3247 0,-0.4302 -1.2906,-1.2906 -0.8604,-2.151 -1.2906,-3.0114 -0.4302,-1.2906 0,-1.7208 0.8604,-0.8604 2.151,-0.4302 2.151,0.4302 3.4416,-2.151 17.6381,-21.0797 19.3589,-39.5782 -2.151,0 -5.1624,0.4302 -3.8718,0 -5.5926,0.4302 -3.0113,0 -2.5811,2.151 0,0.8604 -0.4302,0.8604 -0.8604,0 -1.2906,-0.8604 -1.2906,-3.4416 -2.151,-11.1852 0,-1.7208 0,-2.5812 0,-1.2906 1.7208,-1.2906 2.151,0 6.8831,0 5.1624,-0.4302 7.7436,-0.4302 0.4302,0 1.2906,-0.4302 0.8604,0 1.2906,0 1.7208,-11.1851 1.7208,-22.8005 0,-3.4415 0,-6.0227 0,-1.7208 1.2906,-1.7208 4.7322,0 9.8945,1.7208 1.7208,0 3.0114,1.7208 1.2906,2.151 -0.4302,6.0227 z m -40.8688,22.8005 q 0,3.4416 -0.8604,6.8832 -0.8604,6.453 -0.8604,35.7065 0,12.4757 -0.4302,14.6267 -0.8604,2.151 -0.8604,5.5926 0,4.302 -2.5812,7.7435 -0.8604,1.2906 -1.7208,0.8604 -0.8604,0 -1.2906,-1.2906 -0.4302,-0.4302 -0.8604,-1.2906 -2.5811,-4.7321 -3.4415,-5.1623 -2.151,-3.0114 -3.0114,-6.0228 -1.2906,-2.151 0.4302,-2.5812 0.8604,-0.4302 0.8604,-3.4416 1.7208,-10.7549 1.7208,-30.9742 0,-5.5926 -0.4302,-10.755 l -4.302,3.4416 q -2.5812,2.5812 -3.4416,4.7322 -0.8604,1.7208 -1.2906,1.2906 -0.4302,0 -1.7208,-2.151 -0.4302,-1.2906 -2.5812,-4.302 -0.8604,-1.7208 -1.2906,-2.5812 -1.2906,-3.8718 -2.151,-8.1738 0,-0.8604 0,-1.2906 0,-0.8604 0.8604,-0.8604 0.4302,-0.4302 0.8604,0.4302 1.7208,1.2906 3.8718,0 9.0342,-4.7321 24.5213,-20.2193 0.8604,-0.8604 2.5812,-2.5812 1.7208,-1.2906 2.5812,-2.151 2.5812,-2.5811 3.8718,0.4302 0.4302,1.2906 1.2906,3.4416 1.2906,2.5812 1.7208,3.8718 0.8603,1.7208 -1.2906,3.8718 -4.7322,5.1624 -11.1852,11.1851 0,0 0.4302,0.8604 0,0.4302 0,0.8604 z" />
        <path
           inkscape:connector-curvature="0"
           id="path1202"
           style="font-style:normal;font-variant:normal;font-weight:normal;font-stretch:normal;font-size:110.13072968px;line-height:125%;font-family:'迷你简艺黑';-inkscape-font-specification:'迷你简艺黑';text-align:end;letter-spacing:0px;word-spacing:0px;text-anchor:end;fill:#ffffff;fill-opacity:1;stroke:none;stroke-width:2.753268"
           d="m -2132.8406,1288.2643 q 0,-0.8604 1.2906,-0.8604 0.8604,0 3.0114,-0.4302 5.5925,-0.4302 10.7549,-0.4302 0.4302,-0.8604 0.8604,-3.0114 0.4302,-1.7208 0.4302,-2.5812 v -0.4302 q -6.8832,0.4302 -14.1965,1.2906 -0.4302,0 -0.8604,0 -3.4416,0.4302 -3.0114,2.151 -0.4302,0.8604 -0.8604,0.8604 0,0 -0.8604,-0.8604 -3.8718,-5.1624 -3.8718,-10.3248 0,-1.2906 0.4302,-1.2906 0,-0.4302 1.2906,0 11.1852,0 16.7777,-0.4302 3.4416,0 6.0228,0 -0.4302,-2.5812 -1.2906,-4.3019 -0.8604,-0.8604 0,-1.7208 0.4302,0 0.4302,0 5.1624,-0.8604 9.8946,0 2.5812,0.8604 3.0114,3.4415 0,0 0.4301,0.4302 0,0.4302 0,0.8604 6.453,-0.4302 13.7664,-0.4302 h 9.4643 q 1.2906,-2.5811 1.7208,-3.8717 0.4302,-0.8604 0.4302,-2.5812 v -0.4302 q -3.8717,0 -11.6153,0.4302 -15.4871,0.4302 -23.2307,0.8604 -0.4302,0 -2.151,0 -1.2906,0 -1.7208,0.4302 -0.8604,1.7208 -2.151,0.8604 -3.4416,-3.4416 -3.4416,-11.6154 -0.4302,-4.7322 -1.7208,-7.3134 -0.8604,-2.5811 1.7208,-2.5811 7.7436,0.4302 16.3476,-0.4302 22.8005,-0.8604 36.1366,0 5.5926,0 10.3248,0 2.5812,-0.8604 2.5812,1.2906 0,0.4301 0,1.2905 -0.4302,3.0114 -1.2906,3.8718 0,0.4302 -0.4302,0.8604 -0.8604,2.151 -1.2906,4.7322 -0.8604,3.4416 -3.4416,7.3134 -0.8604,1.2906 -2.151,1.2906 -0.8604,0 -2.5812,-0.4302 -3.8718,-0.8604 -5.1624,-0.8604 6.0228,2.151 6.8832,3.4416 0.8604,1.2906 0,1.7208 -0.4302,0.4301 -1.2906,1.7207 7.3134,0 13.7663,0.4302 5.1624,0 9.4644,-1.7208 1.2906,-0.4301 1.2906,0.8604 1.7208,2.5812 -0.8604,6.8832 -0.4302,0.8604 -1.2906,3.0114 -0.4302,1.2906 -0.8604,2.151 -0.4302,0.4302 -1.2906,0.4302 -6.0228,-3.8718 -36.5668,-3.0114 -4.7322,0 -13.3362,0.4302 -9.0341,0 -13.3361,0.4302 1.7208,0.8604 3.0114,0.8604 2.5812,0.4302 1.2906,3.8718 0,0 -0.4302,0.8604 0,0.4302 -0.4302,0.8604 3.0114,0 5.5925,0 4.7322,0.4302 8.1738,0 3.0114,-0.4302 2.151,3.0114 -0.4302,4.3019 -1.7208,7.3133 -1.7208,3.4416 -2.5812,5.5926 -0.8604,4.302 -4.302,10.3248 -0.4302,0.4302 -0.8604,0.8604 -1.7208,2.5811 -3.4415,-0.4302 -3.0114,-4.302 -4.302,-8.1738 -0.8604,-1.2906 0.4302,-1.7208 2.151,0.4302 3.8718,-5.5926 0.8603,-2.151 -2.151,-2.151 -2.151,0 -3.8718,0 -4.302,9.8946 -15.4872,16.7778 -3.8717,2.5812 -4.3019,3.8717 -0.8604,1.2906 -1.2906,1.2906 -0.4302,0 -0.8604,-0.8604 -0.4302,-1.7207 -2.151,-3.8717 -1.7208,-2.5812 -1.7208,-8.1738 0,-1.2906 1.2906,-0.8604 1.7208,0.8604 3.8718,-0.4302 6.8831,-2.151 9.4643,-6.8832 -0.8604,0 -3.4416,0.4302 -1.2906,0.4302 -2.151,0.4302 -2.5811,0.4302 -3.4415,1.7208 -0.4302,1.2906 -0.8604,1.2906 -0.4302,-0.4302 -0.4302,-1.7208 0,-1.7208 -0.8604,-3.0114 -1.2906,-2.5812 -0.4302,-6.8831 0,-0.4302 0,-0.4302 z m 74.8545,-55.9258 q 0,3.8718 -0.8604,5.1624 -0.4302,0.8604 -0.8604,2.151 -0.4302,0.4302 -0.4302,0.8604 -0.4302,1.2906 -1.7208,0.4302 0,0 -0.4302,0 -1.7208,-0.8604 -4.302,-0.8604 -13.3362,0 -21.9401,0 -6.0228,0 -18.0683,0.8604 -6.0228,0.4302 -9.0342,0.4302 -1.7208,0 -2.151,0.8604 -0.8604,1.7208 -2.151,0.4302 -3.0114,-3.4416 -1.7208,-9.0342 0,-1.2906 1.2906,-0.8604 11.6154,0 22.8005,-0.4302 0,-0.8604 0.4302,-2.151 0,-0.8604 0,-1.2906 -13.3361,0 -29.6837,1.7208 -2.1509,0 -2.5811,1.2906 -1.2906,1.2906 -1.7208,0 -1.7208,-2.5812 -1.7208,-6.0228 -0.4302,-1.7208 0,-3.4416 0,-0.8603 0,-1.2905 0,-0.8604 0.4302,-0.8604 0,-0.4302 0.8604,0 4.7321,0.8604 14.1965,0 10.755,-0.8604 2.151,0 8.604,-0.8604 18.0683,-0.8604 0,-2.151 0,-3.8718 0,-0.8604 0,-2.5812 -0.4302,-1.7208 -0.4302,-2.5812 -0.8604,-0.8604 0.8604,-0.8604 10.3248,0 12.906,1.2906 2.5812,0.8604 1.2906,4.302 -0.8604,1.7208 -0.8604,3.8718 2.5812,0 8.1737,0 6.8832,0.4302 10.3248,0.4302 12.4757,0.8604 14.6267,-1.2906 1.7208,-0.8604 1.7208,1.7208 0.4302,5.1623 -1.7208,9.8945 0,1.2906 -1.7208,0.4302 -0.8604,-0.4302 -3.8718,-0.8604 -0.8603,-0.4302 -1.7207,-0.4302 -4.7322,-0.4302 -16.3476,-0.4302 h -10.3247 l -0.4302,3.4416 q 5.1623,0 10.3247,0 12.906,0 14.6268,-0.4302 1.7208,-0.4302 1.7208,0.8604 z m 5.1623,51.6238 q 2.5812,-0.4302 2.151,2.151 0,3.0114 -1.2906,7.3133 0,0.4302 0,0.8604 -1.2906,3.8718 -1.2906,6.0228 0,0 0,0.4302 -0.8604,3.8718 -3.0114,7.7436 -0.8603,3.4416 -3.4415,1.7208 -3.0114,-1.7208 -12.4758,-0.8604 -8.1737,0.4302 -9.8945,2.151 -1.2906,1.7208 -2.5812,0 -3.0114,-6.453 -2.5812,-9.8946 0,-9.0342 -1.2906,-14.6267 -0.4302,-2.5812 1.7208,-2.151 3.4416,0.4302 7.7435,0 0.8604,0 3.0114,0 9.0342,-0.8604 13.7664,-0.4302 5.5926,0.8604 9.4643,-0.4302 z m -20.2193,-31.4045 q -12.4757,-0.8604 -36.5668,0 -0.4302,-0.4302 -0.4302,0.8604 0,0 0,0.8604 0.4302,0.8604 0.4302,1.2906 0.4302,0.4302 0.4302,0.4302 6.8831,-0.4302 15.0569,-0.8604 7.3134,0 20.6495,0 0,-0.4302 0.8604,-0.4302 0,-0.4302 0.4302,-1.7208 0,-0.4302 -0.8604,-0.4302 z m 9.0342,44.3104 q 0.4302,-2.5812 -1.7208,-2.5812 -1.2906,0 -4.7322,0 -3.8718,0.4302 -5.5926,0.4302 -1.2906,0.4302 -1.2906,2.151 0,4.302 2.151,3.4416 1.2906,0 4.7322,-0.4302 3.4416,0 4.302,0 2.151,0 2.151,-3.0114 z" />
      </g>
    </g>
  </g>
</svg>
