<?xml version="1.0" encoding="UTF-8" standalone="no"?>
<!-- Created with Inkscape (http://www.inkscape.org/) -->

<svg
   xmlns:dc="http://purl.org/dc/elements/1.1/"
   xmlns:cc="http://creativecommons.org/ns#"
   xmlns:rdf="http://www.w3.org/1999/02/22-rdf-syntax-ns#"
   xmlns:svg="http://www.w3.org/2000/svg"
   xmlns="http://www.w3.org/2000/svg"
   xmlns:sodipodi="http://sodipodi.sourceforge.net/DTD/sodipodi-0.dtd"
   xmlns:inkscape="http://www.inkscape.org/namespaces/inkscape"
   width="167.21707mm"
   height="368.53326mm"
   viewBox="0 0 167.21707 368.53326"
   version="1.1"
   id="svg14250"
   inkscape:version="0.92.4 (5da689c313, 2019-01-14)"
   sodipodi:docname="education.svg">
  <defs
     id="defs14244">
    <filter
       inkscape:collect="always"
       style="color-interpolation-filters:sRGB"
       id="filter2996"
       x="-0.085954323"
       width="1.1719086"
       y="-0.035652589"
       height="1.0713052">
      <feGaussianBlur
         inkscape:collect="always"
         stdDeviation="4.8981703"
         id="feGaussianBlur2998" />
    </filter>
  </defs>
  <sodipodi:namedview
     id="base"
     pagecolor="#ffffff"
     bordercolor="#666666"
     borderopacity="1.0"
     inkscape:pageopacity="0.0"
     inkscape:pageshadow="2"
     inkscape:zoom="0.35"
     inkscape:cx="-695.428"
     inkscape:cy="516.44074"
     inkscape:document-units="mm"
     inkscape:current-layer="layer1"
     showgrid="false"
     inkscape:window-width="1680"
     inkscape:window-height="1013"
     inkscape:window-x="0"
     inkscape:window-y="0"
     inkscape:window-maximized="1" />
  <metadata
     id="metadata14247">
    <rdf:RDF>
      <cc:Work
         rdf:about="">
        <dc:format>image/svg+xml</dc:format>
        <dc:type
           rdf:resource="http://purl.org/dc/dcmitype/StillImage" />
        <dc:title />
      </cc:Work>
    </rdf:RDF>
  </metadata>
  <g
     inkscape:label="Layer 1"
     inkscape:groupmode="layer"
     id="layer1"
     transform="translate(88.1442,80.03451)">
    <g
       style="opacity:0.98999999"
       id="g3006"
       transform="matrix(1.0433006,0,0,1.0433006,1405.5939,-1152.6159)"
       inkscape:export-filename="/home/frank/WebstormProjects/Yuki_Website/img/neon-outline/education.png"
       inkscape:export-xdpi="100"
       inkscape:export-ydpi="100">
      <g
         aria-label="教
育"
         style="font-style:normal;font-variant:normal;font-weight:normal;font-stretch:normal;font-size:149.46440125px;line-height:125%;font-family:TarokoFont;-inkscape-font-specification:TarokoFont;text-align:end;letter-spacing:0px;word-spacing:0px;text-anchor:end;fill:none;fill-opacity:1;stroke:#37aac6;stroke-width:3.7366097;stroke-linejoin:round;stroke-opacity:1"
         id="text1652">
        <path
           d="m -1381.4534,1186.0744 -1.1677,-5.4006 q 7.4441,-7.444 6.4223,-19.1209 l -3.2111,-6.4223 -4.2329,-1.1677 -10.6552,3.2112 -6.4223,-6.4223 v -4.2329 l 14.8881,-5.2546 3.2111,-19.2669 h -3.2111 q -10.6552,14.888 -22.3321,26.7109 l -1.1677,3.2111 -4.2329,1.0218 -2.0434,-4.2329 q 9.4875,-22.478 22.3321,-42.7667 l 6.4223,-5.2546 v -3.2111 l -17.0775,-1.1677 -10.6552,2.1894 -5.4006,-10.6552 20.2887,-1.0217 6.4223,1.0217 v -6.4223 l -4.2329,-11.6769 -4.2329,-1.1677 -5.4006,2.1894 -6.4223,-17.0774 16.0558,-1.0218 3.2111,-9.6334 4.2329,-1.1677 5.4006,11.8229 q 11.6769,2.0434 21.3103,7.444 l 4.2329,-6.4223 h 2.1894 q 2.0435,-8.4658 8.4658,-13.8663 l 4.3788,-1.0218 q 5.2546,5.2547 4.2329,12.8446 -10.6552,17.0775 -20.2886,35.1767 7.444,4.2329 17.0775,3.2112 7.444,-20.2887 22.478,-37.3661 l 3.0652,-1.0218 q 4.3788,5.2546 3.2111,13.8664 l -10.6551,19.1209 q 21.4563,-1.0217 40.5772,3.2112 l 1.1677,4.2328 q -24.6675,4.3789 -48.1672,8.6117 l -7.4441,11.677 -3.2111,1.1676 -6.4223,10.6552 -7.444,1.0218 v -8.4658 l 8.6117,-20.2886 h -8.6117 l -3.2112,1.0217 -6.4223,-1.0217 q -6.4223,5.2546 -7.444,12.6986 6.4223,6.4223 4.2329,16.0558 l -2.0435,10.6551 h 2.0435 l 20.2886,-3.2111 2.1894,-6.2764 h 4.2329 l 12.8446,8.4658 q 7.444,-14.8881 10.6552,-30.9438 h 4.2328 l 1.1677,17.0775 q -2.1894,12.8446 -6.4223,24.5215 l 24.5215,21.3103 2.1894,7.59 -4.3788,2.0435 q -18.0992,-1.0218 -30.9438,-13.8663 l -3.2111,-4.2329 h -3.2112 q -11.6769,6.4223 -24.5215,9.6334 11.8229,-9.6334 19.2669,-21.4563 l -5.4006,-8.4658 h -3.2111 l -2.0435,3.2112 -17.0775,7.444 -1.1676,5.4006 2.1894,19.1209 -8.6117,10.6552 z m 3.2112,-99.2537 8.4657,-17.0775 -6.4223,-1.1677 -8.4657,3.2112 -1.1677,13.8663 6.4223,2.1894 z"
           style="font-style:normal;font-variant:normal;font-weight:normal;font-stretch:normal;font-family:TarokoFont;-inkscape-font-specification:TarokoFont;fill:none;fill-opacity:1;stroke:#37aac6;stroke-width:3.7366097;stroke-linejoin:round;stroke-opacity:1"
           id="path821" />
        <path
           d="m -1383.6428,1369.5478 q -4.2329,-9.6335 -4.2329,-20.4346 2.0435,-19.2669 10.6552,-36.4903 h 2.0435 l 5.4005,-10.8012 q 11.8229,-4.2328 24.5215,-5.4005 7.4441,1.1677 12.8446,8.6117 l 6.4223,17.2234 -1.0217,4.3789 q 4.2329,11.8228 3.2111,25.6892 l -3.2111,6.5682 -4.3788,1.0217 q -3.2112,-5.4005 -2.0435,-11.8228 h -3.2112 q -20.2886,2.1894 -40.5772,6.4223 -2.1894,9.6334 -6.4223,15.034 z m 50.2107,-23.6457 v -6.4223 l -2.1894,-8.6118 q -16.7856,2.6273 -33.1332,-1.0217 l -4.2329,8.6117 q 17.0775,4.2329 35.1767,4.2329 l 3.2111,4.3788 z m -4.3788,-24.6675 v -4.3789 l -4.2329,-8.6117 -7.444,-2.0434 -9.6335,4.2328 -5.2546,8.6118 z m 24.6674,-20.4346 q -9.6334,-7.444 -19.2669,-15.034 -16.7855,1.7515 -33.1332,2.0434 l -4.2329,-1.0217 -10.6551,1.0217 q -9.6335,-4.2328 -7.4441,-16.0557 l 2.0435,-9.6335 q -11.6769,-2.1894 -23.4998,-4.3788 l -1.0217,-4.2329 q 7.444,-3.2111 16.0557,-3.2111 l 5.2546,1.0217 29.9221,-2.1894 v -3.2112 l -6.4223,-1.0217 -5.2546,-24.8134 3.2111,-1.0217 q 9.6335,6.4223 14.8881,16.0557 l 2.1894,14.0123 h 3.2112 l 3.2111,-1.0217 q 18.0992,0 31.9656,8.6117 l 3.2111,6.4223 -2.1894,3.2111 h -2.0435 q -15.034,-7.444 -34.1549,-6.4223 l -13.8664,2.1894 -8.6117,-1.1676 q -7.444,5.4005 -7.444,14.0122 l 8.4658,2.1895 29.922,-3.2112 2.1894,-9.7794 h 5.2547 q 8.6117,18.3911 19.2669,35.4686 z"
           style="font-style:normal;font-variant:normal;font-weight:normal;font-stretch:normal;font-family:TarokoFont;-inkscape-font-specification:TarokoFont;fill:none;fill-opacity:1;stroke:#37aac6;stroke-width:3.7366097;stroke-linejoin:round;stroke-opacity:1"
           id="path823" />
      </g>
      <g
         aria-label="教
育"
         style="font-style:normal;font-variant:normal;font-weight:normal;font-stretch:normal;font-size:149.46440125px;line-height:125%;font-family:TarokoFont;-inkscape-font-specification:TarokoFont;text-align:end;letter-spacing:0px;word-spacing:0px;text-anchor:end;fill:none;fill-opacity:1;stroke:#37aac6;stroke-width:3.7366097;stroke-linejoin:round;stroke-opacity:1;filter:url(#filter2996)"
         id="text2754">
        <path
           d="m -1381.4534,1186.0744 -1.1677,-5.4006 q 7.4441,-7.444 6.4223,-19.1209 l -3.2111,-6.4223 -4.2329,-1.1677 -10.6552,3.2112 -6.4223,-6.4223 v -4.2329 l 14.8881,-5.2546 3.2111,-19.2669 h -3.2111 q -10.6552,14.888 -22.3321,26.7109 l -1.1677,3.2111 -4.2329,1.0218 -2.0434,-4.2329 q 9.4875,-22.478 22.3321,-42.7667 l 6.4223,-5.2546 v -3.2111 l -17.0775,-1.1677 -10.6552,2.1894 -5.4006,-10.6552 20.2887,-1.0217 6.4223,1.0217 v -6.4223 l -4.2329,-11.6769 -4.2329,-1.1677 -5.4006,2.1894 -6.4223,-17.0774 16.0558,-1.0218 3.2111,-9.6334 4.2329,-1.1677 5.4006,11.8229 q 11.6769,2.0434 21.3103,7.444 l 4.2329,-6.4223 h 2.1894 q 2.0435,-8.4658 8.4658,-13.8663 l 4.3788,-1.0218 q 5.2546,5.2547 4.2329,12.8446 -10.6552,17.0775 -20.2886,35.1767 7.444,4.2329 17.0775,3.2112 7.444,-20.2887 22.478,-37.3661 l 3.0652,-1.0218 q 4.3788,5.2546 3.2111,13.8664 l -10.6551,19.1209 q 21.4563,-1.0217 40.5772,3.2112 l 1.1677,4.2328 q -24.6675,4.3789 -48.1672,8.6117 l -7.4441,11.677 -3.2111,1.1676 -6.4223,10.6552 -7.444,1.0218 v -8.4658 l 8.6117,-20.2886 h -8.6117 l -3.2112,1.0217 -6.4223,-1.0217 q -6.4223,5.2546 -7.444,12.6986 6.4223,6.4223 4.2329,16.0558 l -2.0435,10.6551 h 2.0435 l 20.2886,-3.2111 2.1894,-6.2764 h 4.2329 l 12.8446,8.4658 q 7.444,-14.8881 10.6552,-30.9438 h 4.2328 l 1.1677,17.0775 q -2.1894,12.8446 -6.4223,24.5215 l 24.5215,21.3103 2.1894,7.59 -4.3788,2.0435 q -18.0992,-1.0218 -30.9438,-13.8663 l -3.2111,-4.2329 h -3.2112 q -11.6769,6.4223 -24.5215,9.6334 11.8229,-9.6334 19.2669,-21.4563 l -5.4006,-8.4658 h -3.2111 l -2.0435,3.2112 -17.0775,7.444 -1.1676,5.4006 2.1894,19.1209 -8.6117,10.6552 z m 3.2112,-99.2537 8.4657,-17.0775 -6.4223,-1.1677 -8.4657,3.2112 -1.1677,13.8663 6.4223,2.1894 z"
           style="font-style:normal;font-variant:normal;font-weight:normal;font-stretch:normal;font-family:TarokoFont;-inkscape-font-specification:TarokoFont;fill:none;fill-opacity:1;stroke:#37aac6;stroke-width:3.7366097;stroke-linejoin:round;stroke-opacity:1"
           id="path826" />
        <path
           d="m -1383.6428,1369.5478 q -4.2329,-9.6335 -4.2329,-20.4346 2.0435,-19.2669 10.6552,-36.4903 h 2.0435 l 5.4005,-10.8012 q 11.8229,-4.2328 24.5215,-5.4005 7.4441,1.1677 12.8446,8.6117 l 6.4223,17.2234 -1.0217,4.3789 q 4.2329,11.8228 3.2111,25.6892 l -3.2111,6.5682 -4.3788,1.0217 q -3.2112,-5.4005 -2.0435,-11.8228 h -3.2112 q -20.2886,2.1894 -40.5772,6.4223 -2.1894,9.6334 -6.4223,15.034 z m 50.2107,-23.6457 v -6.4223 l -2.1894,-8.6118 q -16.7856,2.6273 -33.1332,-1.0217 l -4.2329,8.6117 q 17.0775,4.2329 35.1767,4.2329 l 3.2111,4.3788 z m -4.3788,-24.6675 v -4.3789 l -4.2329,-8.6117 -7.444,-2.0434 -9.6335,4.2328 -5.2546,8.6118 z m 24.6674,-20.4346 q -9.6334,-7.444 -19.2669,-15.034 -16.7855,1.7515 -33.1332,2.0434 l -4.2329,-1.0217 -10.6551,1.0217 q -9.6335,-4.2328 -7.4441,-16.0557 l 2.0435,-9.6335 q -11.6769,-2.1894 -23.4998,-4.3788 l -1.0217,-4.2329 q 7.444,-3.2111 16.0557,-3.2111 l 5.2546,1.0217 29.9221,-2.1894 v -3.2112 l -6.4223,-1.0217 -5.2546,-24.8134 3.2111,-1.0217 q 9.6335,6.4223 14.8881,16.0557 l 2.1894,14.0123 h 3.2112 l 3.2111,-1.0217 q 18.0992,0 31.9656,8.6117 l 3.2111,6.4223 -2.1894,3.2111 h -2.0435 q -15.034,-7.444 -34.1549,-6.4223 l -13.8664,2.1894 -8.6117,-1.1676 q -7.444,5.4005 -7.444,14.0122 l 8.4658,2.1895 29.922,-3.2112 2.1894,-9.7794 h 5.2547 q 8.6117,18.3911 19.2669,35.4686 z"
           style="font-style:normal;font-variant:normal;font-weight:normal;font-stretch:normal;font-family:TarokoFont;-inkscape-font-specification:TarokoFont;fill:none;fill-opacity:1;stroke:#37aac6;stroke-width:3.7366097;stroke-linejoin:round;stroke-opacity:1"
           id="path828" />
      </g>
    </g>
  </g>
</svg>
