<?xml version="1.0" encoding="UTF-8" standalone="no"?>
<!-- Created with Inkscape (http://www.inkscape.org/) -->

<svg
   xmlns:dc="http://purl.org/dc/elements/1.1/"
   xmlns:cc="http://creativecommons.org/ns#"
   xmlns:rdf="http://www.w3.org/1999/02/22-rdf-syntax-ns#"
   xmlns:svg="http://www.w3.org/2000/svg"
   xmlns="http://www.w3.org/2000/svg"
   xmlns:sodipodi="http://sodipodi.sourceforge.net/DTD/sodipodi-0.dtd"
   xmlns:inkscape="http://www.inkscape.org/namespaces/inkscape"
   width="146.32237mm"
   height="318.29245mm"
   viewBox="0 0 146.32237 318.29245"
   version="1.1"
   id="svg17233"
   inkscape:version="0.92.4 (5da689c313, 2019-01-14)"
   sodipodi:docname="experience.svg">
  <defs
     id="defs17227">
    <filter
       inkscape:collect="always"
       style="color-interpolation-filters:sRGB"
       id="filter2562"
       x="-0.089373522"
       width="1.1787471"
       y="-0.03746751"
       height="1.074935">
      <feGaussianBlur
         inkscape:collect="always"
         stdDeviation="7.3174097"
         id="feGaussianBlur2564" />
    </filter>
  </defs>
  <sodipodi:namedview
     id="base"
     pagecolor="#ffffff"
     bordercolor="#666666"
     borderopacity="1.0"
     inkscape:pageopacity="0.0"
     inkscape:pageshadow="2"
     inkscape:zoom="0.35"
     inkscape:cx="-97.771006"
     inkscape:cy="758.64035"
     inkscape:document-units="mm"
     inkscape:current-layer="layer1"
     showgrid="false"
     inkscape:window-width="1680"
     inkscape:window-height="1013"
     inkscape:window-x="0"
     inkscape:window-y="0"
     inkscape:window-maximized="1" />
  <metadata
     id="metadata17230">
    <rdf:RDF>
      <cc:Work
         rdf:about="">
        <dc:format>image/svg+xml</dc:format>
        <dc:type
           rdf:resource="http://purl.org/dc/dcmitype/StillImage" />
        <dc:title />
      </cc:Work>
    </rdf:RDF>
  </metadata>
  <g
     inkscape:label="Layer 1"
     inkscape:groupmode="layer"
     id="layer1"
     transform="translate(-67.445958,-66.038274)">
    <g
       transform="translate(410.89311,-1682.155)"
       style="opacity:0.98999999"
       id="g17798">
      <g
         aria-label="経
験"
         style="font-style:normal;font-variant:normal;font-weight:normal;font-stretch:normal;font-size:136.82780457px;line-height:125%;font-family:TarokoFont;-inkscape-font-specification:TarokoFont;text-align:end;letter-spacing:0px;word-spacing:0px;text-anchor:end;fill:none;fill-opacity:1;stroke:#fd7e2a;stroke-width:3.42069483;stroke-linecap:round;stroke-linejoin:round;stroke-opacity:1"
         id="text2316">
        <path
           d="m -271.28818,1882.4861 q -3.87501,-5.8793 -4.81035,-12.694 l 26.18969,-2.9397 0.93535,-15.6336 -5.7457,-2.0043 -5.87932,0.9353 -4.81035,-9.7543 0.93534,-2.0043 16.569,-2.8061 2.80604,-15.7672 h 2.00431 l 5.7457,6.9483 v 2.9396 l -1.87069,5.8793 10.68967,4.8104 1.87069,5.8793 q -5.7457,2.9397 -11.62502,2.9397 l -1.87069,15.6336 q 17.37072,-0.9353 31.00005,6.8147 l 0.93534,2.9396 q -13.49571,6.8147 -30.59918,5.8794 -16.96986,-0.9354 -32.46988,2.0043 z m -45.56473,-2.9397 q -8.68536,-11.7586 -5.87932,-28.3276 l 3.87501,-8.819 h 2.93966 l 2.00431,3.875 -2.93966,10.6897 q 0,10.8233 3.87501,20.5776 z m 15.50003,-10.8233 q -6.81467,-6.8146 -6.81467,-16.569 l 5.87932,-7.8836 2.93966,7.8836 -1.06897,14.6983 1.06897,0.9354 z m 16.56899,-6.8146 -4.94398,-13.6294 2.93966,-1.0689 q 4.81036,5.8793 4.81036,13.7629 z m 0,-23.5173 -3.87501,-12.694 h -4.00863 l -26.18969,4.0086 -6.68105,-15.6336 8.68536,-9.888 v -2.806 l -6.81467,-2.9397 -4.81035,-12.8276 q 8.68536,-14.5647 20.31038,-26.3233 5.87932,4.944 3.87501,11.7586 l -10.68968,21.513 9.75433,0.9354 q 11.62502,-11.7587 25.25435,-18.5734 4.81035,2.9397 3.87501,7.8837 l -17.50434,21.3793 -13.49571,13.763 5.7457,0.9353 11.62501,-1.8707 1.06897,-10.8233 h 2.80604 l 2.93966,2.0044 q 2.93966,11.625 2.00431,25.3879 z m 65.8751,-19.5087 q -14.56468,-2.9396 -26.18969,-12.694 l -15.50003,6.8147 -1.87069,-5.8793 8.68536,-9.7543 -3.87501,-1.8707 q -4.81035,-4.944 -4.81035,-11.7587 h 2.80604 l 16.56899,6.8147 3.87501,-2.0043 v -1.8707 l 5.74569,-5.8793 v -3.875 l -28.06039,-1.069 v -1.8707 h -2.00431 l -0.93535,-5.8793 26.1897,-2.9397 9.75433,4.8104 q 5.7457,4.9439 4.81035,12.8276 l -9.75433,16.569 q 10.68968,5.8793 16.569,14.6983 v 3.875 z"
           style="font-style:normal;font-variant:normal;font-weight:normal;font-stretch:normal;font-family:TarokoFont;-inkscape-font-specification:TarokoFont;fill:none;fill-opacity:1;stroke:#fd7e2a;stroke-width:3.42069483;stroke-linecap:round;stroke-linejoin:round;stroke-opacity:1"
           id="path821" />
        <path
           d="m -293.33563,2055.3915 -4.81035,-2.0043 -1.06897,-5.8793 5.87932,-2.0043 5.87932,-22.7156 -3.87501,-4.8103 h -2.93966 q -3.875,4.8103 -3.875,10.8233 l -2.93966,0.9353 q -4.00863,-9.8879 -4.00863,-20.7112 5.87932,4.9439 12.82761,6.0129 v -4.944 l -2.00432,-4.9439 h 2.00432 l 4.81035,2.0043 v -2.0043 q -6.81467,-6.9483 -17.63796,-4.944 l -14.56468,5.8793 -4.00863,-4.944 q -2.80603,-14.6983 -2.40517,-30.8664 0.53448,-16.3017 -4.40949,-31.1337 l -1.87069,-0.9353 v -2.0043 l 0.93534,-2.0043 q 11.75864,-6.8147 27.39229,-6.8147 l 3.875,0.9353 6.81467,-0.9353 11.75864,6.8147 0.93535,4.0086 q -8.81898,2.9397 -18.57331,2.9397 l -1.87069,8.8189 q 7.75001,2.0043 14.56468,4.944 l 1.06896,4.0086 q -6.81466,2.9397 -15.63364,2.9397 v 10.8233 l 15.63364,2.0043 v 3.875 l -14.6983,5.8793 -2.00431,5.8793 21.51297,7.8837 q 4.00862,6.9483 4.94397,14.8319 -0.93535,22.5819 -11.75864,40.3535 z m 45.96559,-9.8879 -2.00431,-0.9354 -0.93535,-8.9526 2.93966,-11.7586 -5.87932,-1.069 -3.87501,1.069 -7.88363,-9.888 2.93966,-23.6509 -1.87069,-4.8103 3.875,-1.069 4.81036,2.0043 9.88794,-2.9396 0.93535,-5.8793 -4.94397,-2.0044 -4.81036,0.9354 -5.87932,-10.8233 -3.875,-0.9353 -5.87932,4.9439 h -2.93966 l -2.00432,-10.8233 12.69399,-19.7759 4.00863,-2.9396 3.875,-8.819 h 2.93966 q 21.51297,10.8233 40.08627,26.5906 l 0.93535,5.8793 -6.81467,2.0043 -2.93965,-2.0043 v -2.0043 l -23.51728,-12.694 -6.81467,3.875 q -5.87932,6.9483 -8.81898,14.6983 17.63796,-1.8707 31.26729,4.0086 l 1.06897,2.9397 -12.69399,4.0086 v 8.819 l 17.50434,11.7586 2.93966,7.8836 q -0.93534,7.8837 -4.81035,13.763 l -14.6983,4.944 -0.93535,2.9396 5.7457,4.0087 v 1.8707 l 11.75864,7.8836 2.00432,6.0129 -6.81467,0.9354 -15.63365,-10.8233 -2.00431,8.819 z m -79.10357,-6.9483 -2.93966,-11.7587 0.93534,-13.7629 h 2.00432 l 4.81035,3.875 v 6.9483 q 0,9.8879 -4.81035,14.6983 z m 13.62933,-3.875 q -4.94398,-6.9483 -2.93966,-15.7673 l 0.93534,-4.944 5.87932,8.819 q 0,6.9483 -3.875,11.8923 z m 66.40959,-24.5863 1.06896,-10.8233 -10.82329,-1.0689 v 13.7629 h 4.94397 z m 12.69398,-1.0689 2.00432,-5.8794 -2.00432,-4.9439 -4.81035,-0.9354 -0.93535,11.7587 4.81036,1.0689 z m -76.16391,-17.638 0.93534,-4.0086 h -6.81466 l -2.00432,4.0086 z m -0.93535,-16.7026 q 2.93966,-4.0086 1.87069,-9.8879 h -5.87932 q -3.875,2.9396 -2.93966,8.8189 l 5.87932,2.0043 z m -1.06897,-23.6509 1.06897,-7.8836 h -4.94397 l -4.94398,0.9353 v 6.9483 l 4.00863,1.8707 z"
           style="font-style:normal;font-variant:normal;font-weight:normal;font-stretch:normal;font-family:TarokoFont;-inkscape-font-specification:TarokoFont;fill:none;fill-opacity:1;stroke:#fd7e2a;stroke-width:3.42069483;stroke-linecap:round;stroke-linejoin:round;stroke-opacity:1"
           id="path823" />
      </g>
      <g
         aria-label="経
験"
         transform="matrix(0.63172836,0,0,0.63172836,570.90659,341.11552)"
         style="font-style:normal;font-variant:normal;font-weight:normal;font-stretch:normal;font-size:216.5927887px;line-height:125%;font-family:TarokoFont;-inkscape-font-specification:TarokoFont;text-align:end;letter-spacing:0px;word-spacing:0px;text-anchor:end;fill:none;fill-opacity:1;stroke:#fd7e2a;stroke-width:5.41481924;stroke-linecap:round;stroke-linejoin:round;stroke-opacity:1;filter:url(#filter2562)"
         id="text2324">
        <path
           d="m -1333.1596,2439.9261 q -6.1339,-9.3067 -7.6146,-20.0941 l 41.4572,-4.6533 1.4807,-24.7475 -9.0952,-3.1727 -9.3068,1.4806 -7.6146,-15.4407 1.4807,-3.1727 26.228,-4.4419 4.4418,-24.9589 h 3.1728 l 9.0952,10.9988 v 4.6534 l -2.9612,9.3067 16.9213,7.6146 2.9612,9.3067 q -9.0952,4.6534 -18.4019,4.6534 l -2.9613,24.7474 q 27.4972,-1.4806 49.0719,10.7874 l 1.4806,4.6533 q -21.3632,10.7874 -48.4373,9.3067 -26.8626,-1.4806 -51.3985,3.1728 z m -72.1271,-4.6534 q -13.7485,-18.6134 -9.3067,-44.8415 l 6.134,-13.96 h 4.6534 l 3.1727,6.1339 -4.6534,16.9214 q 0,17.1328 6.134,32.5735 z m 24.5359,-17.1328 q -10.7873,-10.7873 -10.7873,-26.228 l 9.3067,-12.4795 4.6534,12.4795 -1.6921,23.2668 1.6921,1.4806 z m 26.2281,-10.7873 -7.8261,-21.5747 4.6533,-1.6921 q 7.6146,9.3067 7.6146,21.7861 z m 0,-37.2269 -6.134,-20.0941 h -6.3455 l -41.4572,6.3455 -10.5758,-24.7474 13.7485,-15.6522 v -4.4419 l -10.7873,-4.6533 -7.6146,-20.3056 q 13.7486,-23.0553 32.1505,-41.6687 9.3067,7.8261 6.134,18.6134 l -16.9213,34.0542 15.4407,1.4806 q 18.4019,-18.6135 39.9766,-29.4008 7.6146,4.6533 6.1339,12.4795 l -27.7086,33.8426 -21.3632,21.7862 9.0952,1.4806 18.402,-2.9612 1.6921,-17.1329 h 4.4418 l 4.6534,3.1728 q 4.6534,18.4019 3.1727,40.1881 z m 104.2776,-30.8814 q -23.0553,-4.6534 -41.4573,-20.0941 l -24.5359,10.7874 -2.9612,-9.3068 13.7486,-15.4407 -6.134,-2.9612 q -7.6146,-7.8261 -7.6146,-18.6134 h 4.4419 l 26.228,10.7873 6.134,-3.1727 v -2.9613 l 9.0952,-9.3067 v -6.134 l -44.4185,-1.6921 v -2.9612 h -3.1727 l -1.4806,-9.3067 41.4572,-4.6534 15.4407,7.6146 q 9.0952,7.8261 7.6146,20.3056 l -15.4407,26.228 q 16.9213,9.3067 26.228,23.2668 v 6.134 z"
           style="font-style:normal;font-variant:normal;font-weight:normal;font-stretch:normal;font-family:TarokoFont;-inkscape-font-specification:TarokoFont;fill:none;fill-opacity:1;stroke:#fd7e2a;stroke-width:5.41481924;stroke-linecap:round;stroke-linejoin:round;stroke-opacity:1"
           id="path826" />
        <path
           d="m -1368.0598,2713.6283 -7.6146,-3.1727 -1.6921,-9.3068 9.3067,-3.1727 9.3067,-35.9578 -6.1339,-7.6146 h -4.6534 q -6.134,7.6146 -6.134,17.1328 l -4.6533,1.4807 q -6.3455,-15.6523 -6.3455,-32.7851 9.3067,7.8261 20.3056,9.5183 v -7.8262 l -3.1728,-7.8261 h 3.1728 l 7.6145,3.1728 v -3.1728 q -10.7873,-10.9988 -27.9201,-7.8261 l -23.0553,9.3068 -6.3455,-7.8262 q -4.4418,-23.2668 -3.8073,-48.8602 0.8461,-25.805 -6.98,-49.2834 l -2.9613,-1.4806 v -3.1727 l 1.4806,-3.1728 q 18.6135,-10.7873 43.3609,-10.7873 l 6.134,1.4806 10.7873,-1.4806 18.6135,10.7873 1.4806,6.3455 q -13.9601,4.6534 -29.4008,4.6534 l -2.9612,13.9601 q 12.2679,3.1727 23.0553,7.8261 l 1.6921,6.3455 q -10.7873,4.6533 -24.7474,4.6533 v 17.1329 l 24.7474,3.1727 v 6.134 l -23.2668,9.3067 -3.1728,9.3067 34.0542,12.4795 q 6.3455,10.9988 7.8261,23.4783 -1.4806,35.7463 -18.6135,63.878 z m 72.7617,-15.6522 -3.1728,-1.4806 -1.4806,-14.1716 4.6534,-18.6135 -9.3068,-1.6921 -6.1339,1.6921 -12.4795,-15.6522 4.6534,-37.4384 -2.9613,-7.6146 6.134,-1.6921 7.6146,3.1727 15.6522,-4.6533 1.4806,-9.3067 -7.8261,-3.1728 -7.6146,1.4806 -9.3067,-17.1328 -6.134,-1.4806 -9.3067,7.8261 h -4.6534 l -3.1727,-17.1328 20.0941,-31.3045 6.3454,-4.6533 6.134,-13.9601 h 4.6534 q 34.0541,17.1328 63.4549,42.0918 l 1.4806,9.3067 -10.7873,3.1727 -4.6534,-3.1727 v -3.1728 l -37.2269,-20.094 -10.7873,6.134 q -9.3067,10.9988 -13.9601,23.2668 27.9202,-2.9613 49.4949,6.3454 l 1.6921,4.6534 -20.0941,6.3455 v 13.9601 l 27.7087,18.6134 4.6533,12.4795 q -1.4806,12.4795 -7.6146,21.7862 l -23.2668,7.8261 -1.4806,4.6533 9.0952,6.3455 v 2.9613 l 18.6135,12.4794 3.1727,9.5183 -10.7873,1.4806 -24.7474,-17.1328 -3.1728,13.96 z m -125.2177,-10.9989 -4.6534,-18.6134 1.4806,-21.7862 h 3.1728 l 7.6145,6.134 v 10.9988 q 0,15.6522 -7.6145,23.2668 z m 21.5746,-6.1339 q -7.8261,-10.9989 -4.6533,-24.959 l 1.4806,-7.8261 9.3067,13.9601 q 0,10.9989 -6.134,18.825 z m 105.1237,-38.9191 1.6921,-17.1328 -17.1328,-1.6921 v 21.7862 h 7.8261 z m 20.094,-1.6921 3.1728,-9.3067 -3.1728,-7.8261 -7.6146,-1.4806 -1.4806,18.6134 7.6146,1.6921 z m -120.5643,-27.9202 1.4806,-6.3454 h -10.7873 l -3.1728,6.3454 z m -1.4806,-26.4395 q 4.6533,-6.3455 2.9612,-15.6522 h -9.3067 q -6.134,4.6533 -4.6534,13.9601 l 9.3067,3.1727 z m -1.6922,-37.4384 1.6922,-12.4795 h -7.8261 l -7.8261,1.4806 v 10.9989 l 6.3455,2.9612 z"
           style="font-style:normal;font-variant:normal;font-weight:normal;font-stretch:normal;font-family:TarokoFont;-inkscape-font-specification:TarokoFont;fill:none;fill-opacity:1;stroke:#fd7e2a;stroke-width:5.41481924;stroke-linecap:round;stroke-linejoin:round;stroke-opacity:1"
           id="path828" />
      </g>
    </g>
  </g>
</svg>
