<?xml version="1.0" encoding="UTF-8" standalone="no"?>
<!-- Generator: Adobe Illustrator 16.0.0, SVG Export Plug-In . SVG Version: 6.00 Build 0)  -->

<svg
   xmlns:dc="http://purl.org/dc/elements/1.1/"
   xmlns:cc="http://creativecommons.org/ns#"
   xmlns:rdf="http://www.w3.org/1999/02/22-rdf-syntax-ns#"
   xmlns:svg="http://www.w3.org/2000/svg"
   xmlns="http://www.w3.org/2000/svg"
   xmlns:sodipodi="http://sodipodi.sourceforge.net/DTD/sodipodi-0.dtd"
   xmlns:inkscape="http://www.inkscape.org/namespaces/inkscape"
   version="1.1"
   id="Layer_1"
   x="0px"
   y="0px"
   width="655.11676"
   height="465.88547"
   viewBox="0 0 655.11676 465.88547"
   enable-background="new 0 0 512 512"
   xml:space="preserve"
   sodipodi:docname="arrow-down.svg"
   inkscape:version="0.92.4 (5da689c313, 2019-01-14)"><metadata
   id="metadata11341"><rdf:RDF><cc:Work
       rdf:about=""><dc:format>image/svg+xml</dc:format><dc:type
         rdf:resource="http://purl.org/dc/dcmitype/StillImage" /><dc:title /></cc:Work></rdf:RDF></metadata><defs
   id="defs11339"><filter
     inkscape:collect="always"
     style="color-interpolation-filters:sRGB"
     id="filter12840"
     x="-0.17758478"
     width="1.3551697"
     y="-0.29181251"
     height="1.583625"><feGaussianBlur
       inkscape:collect="always"
       stdDeviation="35.770048"
       id="feGaussianBlur12842" /></filter></defs><sodipodi:namedview
   pagecolor="#ffffff"
   bordercolor="#666666"
   borderopacity="1"
   objecttolerance="10"
   gridtolerance="10"
   guidetolerance="10"
   inkscape:pageopacity="0"
   inkscape:pageshadow="2"
   inkscape:window-width="1920"
   inkscape:window-height="1016"
   id="namedview11337"
   showgrid="false"
   inkscape:zoom="0.65186406"
   inkscape:cx="353.2094"
   inkscape:cy="337.99557"
   inkscape:window-x="1680"
   inkscape:window-y="27"
   inkscape:window-maximized="1"
   inkscape:current-layer="Layer_1" />
<path
   id="path11887"
   d="m 138.36254,85.849815 c -13.33212,0.10751 -26.70548,5.30069 -36.95898,15.554695 -20.508001,20.509 -20.770751,53.49288 -0.59375,73.67188 l 189.99609,190 c 10.09937,10.09887 23.40749,15.07617 36.75195,14.95898 13.34458,0.11718 26.65209,-4.86012 36.75195,-14.95898 l 189.99805,-190 c 20.177,-20.179 19.9123,-53.16288 -0.5957,-73.67188 -20.508,-20.508005 -53.49388,-20.771755 -73.67188,-0.59375 L 327.55785,253.29318 175.07543,100.81076 C 164.98643,90.721755 151.69466,85.742315 138.36254,85.849815 Z"
   style="fill:#fd30fd;fill-opacity:1;filter:url(#filter12840);stroke:#fe2ffe;stroke-opacity:1;stroke-width:50;stroke-miterlimit:4;stroke-dasharray:none"
   inkscape:connector-curvature="0" /><path
   style="fill:#fd30fd;fill-opacity:1"
   d="m 138.36254,85.849815 c -13.33212,0.10751 -26.70548,5.30069 -36.95898,15.554695 -20.508001,20.509 -20.770751,53.49288 -0.59375,73.67188 l 189.99609,190 c 10.09937,10.09887 23.40749,15.07617 36.75195,14.95898 13.34458,0.11718 26.65209,-4.86012 36.75195,-14.95898 l 189.99805,-190 c 20.177,-20.179 19.9123,-53.16288 -0.5957,-73.67188 -20.508,-20.508005 -53.49388,-20.771755 -73.67188,-0.59375 L 327.55785,253.29318 175.07543,100.81076 C 164.98643,90.721755 151.69466,85.742315 138.36254,85.849815 Z"
   id="path11332"
   inkscape:connector-curvature="0" />

</svg>