<?xml version="1.0" encoding="UTF-8" standalone="no"?>
<!-- Created with Inkscape (http://www.inkscape.org/) -->

<svg
   xmlns:dc="http://purl.org/dc/elements/1.1/"
   xmlns:cc="http://creativecommons.org/ns#"
   xmlns:rdf="http://www.w3.org/1999/02/22-rdf-syntax-ns#"
   xmlns:svg="http://www.w3.org/2000/svg"
   xmlns="http://www.w3.org/2000/svg"
   xmlns:sodipodi="http://sodipodi.sourceforge.net/DTD/sodipodi-0.dtd"
   xmlns:inkscape="http://www.inkscape.org/namespaces/inkscape"
   width="707.20599mm"
   height="384.57254mm"
   viewBox="0 0 707.20599 384.57254"
   version="1.1"
   id="svg19255"
   inkscape:version="0.92.4 (5da689c313, 2019-01-14)"
   sodipodi:docname="footer.svg">
  <defs
     id="defs19249">
    <filter
       inkscape:collect="always"
       style="color-interpolation-filters:sRGB"
       id="filter4107"
       x="-0.12297898"
       width="1.245958"
       y="-0.15080056"
       height="1.3016011">
      <feGaussianBlur
         inkscape:collect="always"
         stdDeviation="4.1217378"
         id="feGaussianBlur4109" />
    </filter>
    <filter
       inkscape:collect="always"
       style="color-interpolation-filters:sRGB"
       id="filter4103"
       x="-0.16613463"
       width="1.3322693"
       y="-0.21890545"
       height="1.4378109">
      <feGaussianBlur
         inkscape:collect="always"
         stdDeviation="4.1217378"
         id="feGaussianBlur4105" />
    </filter>
    <filter
       inkscape:collect="always"
       style="color-interpolation-filters:sRGB"
       id="filter4099"
       x="-0.10327269"
       width="1.2065454"
       y="-0.13448985"
       height="1.2689797">
      <feGaussianBlur
         inkscape:collect="always"
         stdDeviation="4.1217378"
         id="feGaussianBlur4101" />
    </filter>
    <filter
       inkscape:collect="always"
       style="color-interpolation-filters:sRGB"
       id="filter4095"
       x="-0.064187109"
       width="1.1283742"
       y="-0.075687125"
       height="1.1513742">
      <feGaussianBlur
         inkscape:collect="always"
         stdDeviation="4.1217378"
         id="feGaussianBlur4097" />
    </filter>
  </defs>
  <sodipodi:namedview
     id="base"
     pagecolor="#ffffff"
     bordercolor="#666666"
     borderopacity="1.0"
     inkscape:pageopacity="0.0"
     inkscape:pageshadow="2"
     inkscape:zoom="0.35"
     inkscape:cx="1242.1664"
     inkscape:cy="623.89424"
     inkscape:document-units="mm"
     inkscape:current-layer="layer1"
     showgrid="false"
     inkscape:window-width="1920"
     inkscape:window-height="1016"
     inkscape:window-x="1680"
     inkscape:window-y="27"
     inkscape:window-maximized="1" />
  <metadata
     id="metadata19252">
    <rdf:RDF>
      <cc:Work
         rdf:about="">
        <dc:format>image/svg+xml</dc:format>
        <dc:type
           rdf:resource="http://purl.org/dc/dcmitype/StillImage" />
        <dc:title></dc:title>
      </cc:Work>
    </rdf:RDF>
  </metadata>
  <g
     inkscape:label="Layer 1"
     inkscape:groupmode="layer"
     id="layer1"
     transform="translate(412.56725,70.667201)">
    <g
       style="opacity:0.98999999"
       id="g4600"
       transform="matrix(0.63172835,0,0,0.63172835,1010.8521,-2457.9556)">
      <path
         sodipodi:nodetypes="ccccc"
         inkscape:connector-curvature="0"
         id="path4007-5"
         d="m -1136.2319,4387.4099 -442.5215,0.332 174.9503,-153.04 266.9072,83.6575 z"
         style="opacity:1;vector-effect:none;fill:#000000;fill-opacity:1;stroke:none;stroke-width:0.8782934;stroke-linecap:round;stroke-linejoin:round;stroke-miterlimit:4;stroke-dasharray:none;stroke-dashoffset:0;stroke-opacity:1" />
      <path
         inkscape:connector-curvature="0"
         id="path4009-3"
         d="m -1472.1897,4251.9646 -179.266,134.7815 72.7023,0.9958 133.1216,-116.1908 z"
         style="opacity:1;vector-effect:none;fill:#ff30ff;fill-opacity:0.99215686;stroke:none;stroke-width:0.8782934;stroke-linecap:round;stroke-linejoin:round;stroke-miterlimit:4;stroke-dasharray:none;stroke-dashoffset:0;stroke-opacity:1" />
      <path
         inkscape:connector-curvature="0"
         id="path4011-5"
         d="m -1515.1802,4283.834 c -0.83,-0.3318 -20.7484,-16.1007 -20.7484,-16.1007 l -150.2183,98.0983 34.6912,20.9145 z"
         style="opacity:1;vector-effect:none;fill:#d604d6;fill-opacity:1;stroke:none;stroke-width:0.8782934;stroke-linecap:round;stroke-linejoin:round;stroke-miterlimit:4;stroke-dasharray:none;stroke-dashoffset:0;stroke-opacity:1" />
      <path
         sodipodi:nodetypes="ccccc"
         inkscape:connector-curvature="0"
         id="path4013-6"
         d="m -1575.2676,4293.9593 -11.9511,-12.4491 -116.6486,74.2734 17.7204,10.048 z"
         style="opacity:1;vector-effect:none;fill:#ad05ad;fill-opacity:1;stroke:none;stroke-width:0.8782934;stroke-linecap:round;stroke-linejoin:round;stroke-miterlimit:4;stroke-dasharray:none;stroke-dashoffset:0;stroke-opacity:1" />
      <path
         sodipodi:nodetypes="ccccc"
         inkscape:connector-curvature="0"
         id="path4015-2"
         d="m -1637.9823,4294.2606 -82.8637,51.1736 16.9787,10.3494 90.1807,-57.5324 z"
         style="opacity:1;vector-effect:none;fill:#850585;fill-opacity:1;stroke:none;stroke-width:0.8782934;stroke-linecap:round;stroke-linejoin:round;stroke-miterlimit:4;stroke-dasharray:none;stroke-dashoffset:0;stroke-opacity:1" />
      <path
         sodipodi:nodetypes="ccccc"
         inkscape:connector-curvature="0"
         id="path4017-9"
         d="m -1720.846,4345.4342 -15.4929,-8.8028 55.9858,-30.7512 13.3803,6.1033 z"
         style="opacity:1;vector-effect:none;fill:#5e045e;fill-opacity:1;stroke:none;stroke-width:0.8782934;stroke-linecap:round;stroke-linejoin:round;stroke-miterlimit:4;stroke-dasharray:none;stroke-dashoffset:0;stroke-opacity:1" />
      <path
         sodipodi:nodetypes="ccccc"
         inkscape:connector-curvature="0"
         id="path4019-1"
         d="m -1747.2543,4330.4108 14.554,-8.5681 12.3239,5.9859 -15.9625,8.8028 z"
         style="opacity:1;vector-effect:none;fill:#370337;fill-opacity:1;stroke:none;stroke-width:0.8782934;stroke-linecap:round;stroke-linejoin:round;stroke-miterlimit:4;stroke-dasharray:none;stroke-dashoffset:0;stroke-opacity:1" />
      <path
         inkscape:connector-curvature="0"
         id="path4053-0"
         d="m -1137.7364,4298.4544 -255.4701,-79.5425 -372.6212,101.21 18.5734,10.2889 14.554,-8.5681 c 0,0 12.3239,5.9859 12.3239,5.9859 l 40.0233,-21.9484 13.3803,6.1033 28.9905,-17.7229 24.2957,3.9906 26.4679,-16.741 11.9511,12.4491 39.339,-26.226 20.7484,16.1007 42.9905,-31.8694 26.5579,19.5865 41.8287,-36.8492 266.9072,83.6575 z"
         style="opacity:1;vector-effect:none;fill:#000002;fill-opacity:1;stroke:none;stroke-width:0.8782934;stroke-linecap:round;stroke-linejoin:round;stroke-miterlimit:4;stroke-dasharray:none;stroke-dashoffset:0;stroke-opacity:1" />
      <path
         sodipodi:nodetypes="cccc"
         inkscape:connector-curvature="0"
         id="path4021-7"
         d="m -1651.4557,4386.7461 -600.8728,-353.6761 0.664,354.3399 z"
         style="opacity:1;vector-effect:none;fill:#000000;fill-opacity:1;stroke:none;stroke-width:0.8782934;stroke-linecap:round;stroke-linejoin:round;stroke-miterlimit:4;stroke-dasharray:none;stroke-dashoffset:0;stroke-opacity:1" />
      <g
         transform="matrix(1.7565868,0,0,1.7565868,378.39395,3119.4014)"
         id="g4363"
         style="fill:none;fill-opacity:0;stroke:#ff30ff;stroke-width:5;stroke-linecap:round;stroke-linejoin:round;stroke-miterlimit:4;stroke-dasharray:none;stroke-opacity:0.99215686;filter:url(#filter4107)">
        <path
           inkscape:connector-curvature="0"
           id="path4351"
           d="m -1126.4111,385.38057 -39.5659,0.96441 -39.6267,-0.32306"
           style="opacity:1;vector-effect:none;fill:none;fill-opacity:0;stroke:#ff30ff;stroke-width:5;stroke-linecap:round;stroke-linejoin:round;stroke-miterlimit:4;stroke-dasharray:none;stroke-dashoffset:0;stroke-opacity:0.99215686" />
        <path
           inkscape:connector-curvature="0"
           id="path4353"
           d="m -1126.458,397.22078 -35.9655,2.26129 -42.6418,-0.86143"
           style="opacity:1;vector-effect:none;fill:none;fill-opacity:0;stroke:#ff30ff;stroke-width:5;stroke-linecap:round;stroke-linejoin:round;stroke-miterlimit:4;stroke-dasharray:none;stroke-dashoffset:0;stroke-opacity:0.99215686" />
        <path
           inkscape:connector-curvature="0"
           id="path4355"
           d="m -1131.6266,408.63499 c -1.723,-0.21537 -28.8586,3.87651 -28.8586,3.87651 l -44.6877,-1.6152"
           style="opacity:1;vector-effect:none;fill:none;fill-opacity:0;stroke:#ff30ff;stroke-width:5;stroke-linecap:round;stroke-linejoin:round;stroke-miterlimit:4;stroke-dasharray:none;stroke-dashoffset:0;stroke-opacity:0.99215686" />
        <path
           sodipodi:nodetypes="ccc"
           style="opacity:1;vector-effect:none;fill:none;fill-opacity:0;stroke:#ff30ff;stroke-width:5;stroke-linecap:round;stroke-linejoin:round;stroke-miterlimit:4;stroke-dasharray:none;stroke-dashoffset:0;stroke-opacity:0.99215686"
           d="m -1127.1637,421.58604 -36.4431,4.41021 -42.7495,-3.76886"
           id="path4357"
           inkscape:connector-curvature="0" />
        <path
           sodipodi:nodetypes="ccc"
           style="opacity:1;vector-effect:none;fill:none;fill-opacity:0;stroke:#ff30ff;stroke-width:5;stroke-linecap:round;stroke-linejoin:round;stroke-miterlimit:4;stroke-dasharray:none;stroke-dashoffset:0;stroke-opacity:0.99215686"
           d="m -1127.2106,433.42625 -35.4271,4.84564 -43.1802,-3.44578"
           id="path4359"
           inkscape:connector-curvature="0" />
        <path
           sodipodi:nodetypes="ccc"
           style="opacity:1;vector-effect:none;fill:none;fill-opacity:0;stroke:#ff30ff;stroke-width:5;stroke-linecap:round;stroke-linejoin:round;stroke-miterlimit:4;stroke-dasharray:none;stroke-dashoffset:0;stroke-opacity:0.99215686"
           d="m -1125.9184,444.40974 c -1.7229,-0.21537 -35.8579,6.56854 -35.8579,6.56854 l -44.1492,-3.87651"
           id="path4361"
           inkscape:connector-curvature="0" />
      </g>
      <g
         transform="matrix(1.7565868,0,0,1.7565868,378.39395,3119.4014)"
         id="g4377"
         style="fill:none;fill-opacity:0;stroke:#ff30ff;stroke-width:5;stroke-linecap:round;stroke-linejoin:round;stroke-miterlimit:4;stroke-dasharray:none;stroke-opacity:0.99215686;filter:url(#filter4103)">
        <path
           inkscape:connector-curvature="0"
           id="path4365"
           d="m -1298.0354,387.36029 -57.1066,1.75125"
           style="opacity:1;vector-effect:none;fill:none;fill-opacity:0;stroke:#ff30ff;stroke-width:5;stroke-linecap:round;stroke-linejoin:round;stroke-miterlimit:4;stroke-dasharray:none;stroke-dashoffset:0;stroke-opacity:0.99215686" />
        <path
           sodipodi:nodetypes="ccc"
           style="opacity:1;vector-effect:none;fill:none;fill-opacity:0;stroke:#ff30ff;stroke-width:5;stroke-linecap:round;stroke-linejoin:round;stroke-miterlimit:4;stroke-dasharray:none;stroke-dashoffset:0;stroke-opacity:0.99215686"
           d="m -1298.34,396.19278 -38.4483,1.17907 -18.506,-0.34153"
           id="path4367"
           inkscape:connector-curvature="0" />
        <path
           inkscape:connector-curvature="0"
           id="path4369"
           d="m -1297.9593,404.94913 -38.4483,1.17907 -18.506,-0.34153"
           style="opacity:1;vector-effect:none;fill:none;fill-opacity:0;stroke:#ff30ff;stroke-width:5;stroke-linecap:round;stroke-linejoin:round;stroke-miterlimit:4;stroke-dasharray:none;stroke-dashoffset:0;stroke-opacity:0.99215686"
           sodipodi:nodetypes="ccc" />
        <path
           sodipodi:nodetypes="ccc"
           style="opacity:1;vector-effect:none;fill:none;fill-opacity:0;stroke:#ff30ff;stroke-width:5;stroke-linecap:round;stroke-linejoin:round;stroke-miterlimit:4;stroke-dasharray:none;stroke-dashoffset:0;stroke-opacity:0.99215686"
           d="m -1297.0456,413.47705 -38.4483,1.63592 -18.506,-0.79838"
           id="path4371"
           inkscape:connector-curvature="0" />
        <path
           inkscape:connector-curvature="0"
           id="path4373"
           d="m -1296.3603,421.47198 -39.895,2.54963 -16.9832,-1.10295"
           style="opacity:1;vector-effect:none;fill:none;fill-opacity:0;stroke:#ff30ff;stroke-width:5;stroke-linecap:round;stroke-linejoin:round;stroke-miterlimit:4;stroke-dasharray:none;stroke-dashoffset:0;stroke-opacity:0.99215686"
           sodipodi:nodetypes="ccc" />
        <path
           sodipodi:nodetypes="ccc"
           style="opacity:1;vector-effect:none;fill:none;fill-opacity:0;stroke:#ff30ff;stroke-width:5;stroke-linecap:round;stroke-linejoin:round;stroke-miterlimit:4;stroke-dasharray:none;stroke-dashoffset:0;stroke-opacity:0.99215686"
           d="m -1295.7512,429.77147 -39.5143,2.77806 -17.3639,-1.33138"
           id="path4375"
           inkscape:connector-curvature="0" />
      </g>
      <g
         transform="matrix(1.7565868,0,0,1.7565868,378.39395,3119.4014)"
         id="g4391"
         style="fill:none;fill-opacity:0;stroke:#ff30ff;stroke-width:5;stroke-linecap:round;stroke-linejoin:round;stroke-miterlimit:4;stroke-dasharray:none;stroke-opacity:0.99215686;filter:url(#filter4099)">
        <path
           inkscape:connector-curvature="0"
           id="path4379"
           d="m -1345.2436,388.42627 -55.8883,2.13199 -33.198,-0.1523"
           style="opacity:1;vector-effect:none;fill:none;fill-opacity:0;stroke:#ff30ff;stroke-width:5;stroke-linecap:round;stroke-linejoin:round;stroke-miterlimit:4;stroke-dasharray:none;stroke-dashoffset:0;stroke-opacity:0.99215686" />
        <path
           inkscape:connector-curvature="0"
           id="path4381"
           d="m -1432.3502,402.89329 23.9087,2.74111 65.4822,-4.11168"
           style="opacity:1;vector-effect:none;fill:none;fill-opacity:0;stroke:#ff30ff;stroke-width:5;stroke-linecap:round;stroke-linejoin:round;stroke-miterlimit:4;stroke-dasharray:none;stroke-dashoffset:0;stroke-opacity:0.99215686" />
        <path
           inkscape:connector-curvature="0"
           id="path4383"
           d="m -1341.5887,415.53286 c -1.066,0.15229 -62.5889,4.26397 -62.5889,4.26397 l -26.1929,-3.95938"
           style="opacity:1;vector-effect:none;fill:none;fill-opacity:0;stroke:#ff30ff;stroke-width:5;stroke-linecap:round;stroke-linejoin:round;stroke-miterlimit:4;stroke-dasharray:none;stroke-dashoffset:0;stroke-opacity:0.99215686" />
        <path
           inkscape:connector-curvature="0"
           id="path4385"
           d="m -1428.3908,428.62931 25.5838,5.78681 60,-6.39593"
           style="opacity:1;vector-effect:none;fill:none;fill-opacity:0;stroke:#ff30ff;stroke-width:5;stroke-linecap:round;stroke-linejoin:round;stroke-miterlimit:4;stroke-dasharray:none;stroke-dashoffset:0;stroke-opacity:0.99215686" />
        <path
           inkscape:connector-curvature="0"
           id="path4387"
           d="m -1338.543,441.4212 c -0.6092,0.15227 -58.7818,6.24364 -58.7818,6.24364 l -28.7817,-6.7005"
           style="opacity:1;vector-effect:none;fill:none;fill-opacity:0;stroke:#ff30ff;stroke-width:5;stroke-linecap:round;stroke-linejoin:round;stroke-miterlimit:4;stroke-dasharray:none;stroke-dashoffset:0;stroke-opacity:0.99215686" />
        <path
           inkscape:connector-curvature="0"
           id="path4389"
           d="m -1425.9542,456.04049 22.9949,5.93907 63.6548,-8.37562"
           style="opacity:1;vector-effect:none;fill:none;fill-opacity:0;stroke:#ff30ff;stroke-width:5;stroke-linecap:round;stroke-linejoin:round;stroke-miterlimit:4;stroke-dasharray:none;stroke-dashoffset:0;stroke-opacity:0.99215686" />
      </g>
      <g
         transform="matrix(1.7565868,0,0,1.7565868,378.39395,3119.4014)"
         id="g4349"
         style="fill:none;fill-opacity:0;stroke:#ff30ff;stroke-width:5;stroke-linecap:round;stroke-linejoin:round;stroke-miterlimit:4;stroke-dasharray:none;stroke-opacity:0.99215686;filter:url(#filter4095)">
        <path
           sodipodi:nodetypes="ccsc"
           inkscape:connector-curvature="0"
           id="path4337"
           d="m -996.51254,386.75114 -58.17266,1.97969 c 0,0 -95.6345,-1.97969 -95.0254,-1.97969 0.6092,0 23.2995,-1.37057 23.2995,-1.37057"
           style="opacity:1;vector-effect:none;fill:none;fill-opacity:0;stroke:#ff30ff;stroke-width:5;stroke-linecap:round;stroke-linejoin:round;stroke-miterlimit:4;stroke-dasharray:none;stroke-dashoffset:0;stroke-opacity:0.99215686" />
        <path
           style="opacity:1;vector-effect:none;fill:none;fill-opacity:0;stroke:#ff30ff;stroke-width:5;stroke-linecap:round;stroke-linejoin:round;stroke-miterlimit:4;stroke-dasharray:none;stroke-dashoffset:0;stroke-opacity:0.99215686"
           d="m -997.73082,409.28921 -56.64978,6.39593 c 0,0 -94.7208,-4.87309 -94.1117,-4.87309 0.6092,0 20.5584,-0.60915 20.5584,-0.60915"
           id="path4339"
           inkscape:connector-curvature="0"
           sodipodi:nodetypes="ccsc" />
        <path
           sodipodi:nodetypes="ccsc"
           inkscape:connector-curvature="0"
           id="path4341"
           d="m -1000.472,431.06586 -54.9746,10.05075 c 0,0 -95.4442,-8.1472 -94.835,-8.1472 0.6091,0 23.071,0.45684 23.071,0.45684"
           style="opacity:1;vector-effect:none;fill:none;fill-opacity:0;stroke:#ff30ff;stroke-width:5;stroke-linecap:round;stroke-linejoin:round;stroke-miterlimit:4;stroke-dasharray:none;stroke-dashoffset:0;stroke-opacity:0.99215686" />
        <path
           style="opacity:1;vector-effect:none;fill:none;fill-opacity:0;stroke:#ff30ff;stroke-width:5;stroke-linecap:round;stroke-linejoin:round;stroke-miterlimit:4;stroke-dasharray:none;stroke-dashoffset:0;stroke-opacity:0.99215686"
           d="m -1001.538,452.84251 -51.9289,14.46699 c 0,0 -97.7665,-12.90608 -97.1574,-12.90608 0.6092,0 23.1091,1.67511 23.1091,1.67511"
           id="path4343"
           inkscape:connector-curvature="0"
           sodipodi:nodetypes="ccsc" />
        <path
           sodipodi:nodetypes="ccsc"
           inkscape:connector-curvature="0"
           id="path4345"
           d="m -1003.9745,474.31459 -51.6059,17.42822 c 0,0 -95.1581,-15.4866 -94.549,-15.4866 0.6092,0 20.1016,1.90354 20.1016,1.90354"
           style="opacity:1;vector-effect:none;fill:none;fill-opacity:0;stroke:#ff30ff;stroke-width:5;stroke-linecap:round;stroke-linejoin:round;stroke-miterlimit:4;stroke-dasharray:none;stroke-dashoffset:0;stroke-opacity:0.99215686" />
        <path
           style="opacity:1;vector-effect:none;fill:none;fill-opacity:0;stroke:#ff30ff;stroke-width:5;stroke-linecap:round;stroke-linejoin:round;stroke-miterlimit:4;stroke-dasharray:none;stroke-dashoffset:0;stroke-opacity:0.99215686"
           d="m -1005.2667,495.42012 -51.7136,20.65865 c 0,0 -94.1889,-17.7479 -93.5798,-17.7479 0.6092,0 19.9939,0.71904 19.9939,0.71904"
           id="path4347"
           inkscape:connector-curvature="0"
           sodipodi:nodetypes="ccsc" />
      </g>
      <g
         transform="translate(0,-587.28892)"
         style="stroke:#fefefe;stroke-opacity:0.99215686"
         id="g3753">
        <g
           id="g4311"
           style="stroke:#fefefe;stroke-width:5;stroke-linecap:round;stroke-linejoin:round;stroke-miterlimit:4;stroke-dasharray:none;stroke-opacity:0.99215686"
           transform="matrix(1.7565868,0,0,1.7565868,378.39395,3706.6903)">
          <path
             sodipodi:nodetypes="ccsc"
             inkscape:connector-curvature="0"
             id="path4063-9"
             d="m -996.51254,386.75114 -58.17266,1.97969 c 0,0 -95.6345,-1.97969 -95.0254,-1.97969 0.6092,0 23.2995,-1.37057 23.2995,-1.37057"
             style="opacity:1;vector-effect:none;fill:none;fill-opacity:1;stroke:#fefefe;stroke-width:5;stroke-linecap:round;stroke-linejoin:round;stroke-miterlimit:4;stroke-dasharray:none;stroke-dashoffset:0;stroke-opacity:0.99215686" />
          <path
             style="opacity:1;vector-effect:none;fill:none;fill-opacity:1;stroke:#fefefe;stroke-width:5;stroke-linecap:round;stroke-linejoin:round;stroke-miterlimit:4;stroke-dasharray:none;stroke-dashoffset:0;stroke-opacity:0.99215686"
             d="m -997.73082,409.28921 -56.64978,6.39593 c 0,0 -94.7208,-4.87309 -94.1117,-4.87309 0.6092,0 20.5584,-0.60915 20.5584,-0.60915"
             id="path4065-2"
             inkscape:connector-curvature="0"
             sodipodi:nodetypes="ccsc" />
          <path
             sodipodi:nodetypes="ccsc"
             inkscape:connector-curvature="0"
             id="path4067-2"
             d="m -1000.472,431.06586 -54.9746,10.05075 c 0,0 -95.4442,-8.1472 -94.835,-8.1472 0.6091,0 23.071,0.45684 23.071,0.45684"
             style="opacity:1;vector-effect:none;fill:none;fill-opacity:1;stroke:#fefefe;stroke-width:5;stroke-linecap:round;stroke-linejoin:round;stroke-miterlimit:4;stroke-dasharray:none;stroke-dashoffset:0;stroke-opacity:0.99215686" />
          <path
             style="opacity:1;vector-effect:none;fill:none;fill-opacity:1;stroke:#fefefe;stroke-width:5;stroke-linecap:round;stroke-linejoin:round;stroke-miterlimit:4;stroke-dasharray:none;stroke-dashoffset:0;stroke-opacity:0.99215686"
             d="m -1001.538,452.84251 -51.9289,14.46699 c 0,0 -97.7665,-12.90608 -97.1574,-12.90608 0.6092,0 23.1091,1.67511 23.1091,1.67511"
             id="path4069-8"
             inkscape:connector-curvature="0"
             sodipodi:nodetypes="ccsc" />
          <path
             sodipodi:nodetypes="ccsc"
             inkscape:connector-curvature="0"
             id="path4071-9"
             d="m -1003.9745,474.31459 -51.6059,17.42822 c 0,0 -95.1581,-15.4866 -94.549,-15.4866 0.6092,0 20.1016,1.90354 20.1016,1.90354"
             style="opacity:1;vector-effect:none;fill:none;fill-opacity:1;stroke:#fefefe;stroke-width:5;stroke-linecap:round;stroke-linejoin:round;stroke-miterlimit:4;stroke-dasharray:none;stroke-dashoffset:0;stroke-opacity:0.99215686" />
          <path
             style="opacity:1;vector-effect:none;fill:none;fill-opacity:1;stroke:#fefefe;stroke-width:5;stroke-linecap:round;stroke-linejoin:round;stroke-miterlimit:4;stroke-dasharray:none;stroke-dashoffset:0;stroke-opacity:0.99215686"
             d="m -1005.2667,495.42012 -51.7136,20.65865 c 0,0 -94.1889,-17.7479 -93.5798,-17.7479 0.6092,0 19.9939,0.71904 19.9939,0.71904"
             id="path4073-7"
             inkscape:connector-curvature="0"
             sodipodi:nodetypes="ccsc" />
        </g>
        <g
           id="g4319"
           style="stroke:#fefefe;stroke-width:5;stroke-linecap:round;stroke-linejoin:round;stroke-miterlimit:4;stroke-dasharray:none;stroke-opacity:0.99215686"
           transform="matrix(1.7565868,0,0,1.7565868,378.39395,3706.6903)">
          <path
             inkscape:connector-curvature="0"
             id="path4075-3"
             d="m -1126.4111,385.38057 -39.5659,0.96441 -39.6267,-0.32306"
             style="opacity:1;vector-effect:none;fill:none;fill-opacity:1;stroke:#fefefe;stroke-width:5;stroke-linecap:round;stroke-linejoin:round;stroke-miterlimit:4;stroke-dasharray:none;stroke-dashoffset:0;stroke-opacity:0.99215686" />
          <path
             inkscape:connector-curvature="0"
             id="path4077-6"
             d="m -1126.458,397.22078 -35.9655,2.26129 -42.6418,-0.86143"
             style="opacity:1;vector-effect:none;fill:none;fill-opacity:1;stroke:#fefefe;stroke-width:5;stroke-linecap:round;stroke-linejoin:round;stroke-miterlimit:4;stroke-dasharray:none;stroke-dashoffset:0;stroke-opacity:0.99215686" />
          <path
             inkscape:connector-curvature="0"
             id="path4079-1"
             d="m -1131.6266,408.63499 c -1.723,-0.21537 -28.8586,3.87651 -28.8586,3.87651 l -44.6877,-1.6152"
             style="opacity:1;vector-effect:none;fill:none;fill-opacity:1;stroke:#fefefe;stroke-width:5;stroke-linecap:round;stroke-linejoin:round;stroke-miterlimit:4;stroke-dasharray:none;stroke-dashoffset:0;stroke-opacity:0.99215686" />
          <path
             sodipodi:nodetypes="ccc"
             style="opacity:1;vector-effect:none;fill:none;fill-opacity:1;stroke:#fefefe;stroke-width:5;stroke-linecap:round;stroke-linejoin:round;stroke-miterlimit:4;stroke-dasharray:none;stroke-dashoffset:0;stroke-opacity:0.99215686"
             d="m -1127.1637,421.58604 -36.4431,4.41021 -42.7495,-3.76886"
             id="path4081-2"
             inkscape:connector-curvature="0" />
          <path
             sodipodi:nodetypes="ccc"
             style="opacity:1;vector-effect:none;fill:none;fill-opacity:1;stroke:#fefefe;stroke-width:5;stroke-linecap:round;stroke-linejoin:round;stroke-miterlimit:4;stroke-dasharray:none;stroke-dashoffset:0;stroke-opacity:0.99215686"
             d="m -1127.2106,433.42625 -35.4271,4.84564 -43.1802,-3.44578"
             id="path4083-9"
             inkscape:connector-curvature="0" />
          <path
             sodipodi:nodetypes="ccc"
             style="opacity:1;vector-effect:none;fill:none;fill-opacity:1;stroke:#fefefe;stroke-width:5;stroke-linecap:round;stroke-linejoin:round;stroke-miterlimit:4;stroke-dasharray:none;stroke-dashoffset:0;stroke-opacity:0.99215686"
             d="m -1125.9184,444.40974 c -1.7229,-0.21537 -35.8579,6.56854 -35.8579,6.56854 l -44.1492,-3.87651"
             id="path4085-3"
             inkscape:connector-curvature="0" />
        </g>
        <g
           id="g4335"
           style="stroke:#fefefe;stroke-width:5;stroke-linecap:round;stroke-linejoin:round;stroke-miterlimit:4;stroke-dasharray:none;stroke-opacity:0.99215686"
           transform="matrix(1.7565868,0,0,1.7565868,378.39395,3706.6903)">
          <path
             inkscape:connector-curvature="0"
             id="path4087-1"
             d="m -1298.0354,387.36029 -57.1066,1.75125"
             style="opacity:1;vector-effect:none;fill:none;fill-opacity:1;stroke:#fefefe;stroke-width:5;stroke-linecap:round;stroke-linejoin:round;stroke-miterlimit:4;stroke-dasharray:none;stroke-dashoffset:0;stroke-opacity:0.99215686" />
          <path
             sodipodi:nodetypes="ccc"
             style="opacity:1;vector-effect:none;fill:none;fill-opacity:1;stroke:#fefefe;stroke-width:5;stroke-linecap:round;stroke-linejoin:round;stroke-miterlimit:4;stroke-dasharray:none;stroke-dashoffset:0;stroke-opacity:0.99215686"
             d="m -1298.34,396.19278 -38.4483,1.17907 -18.506,-0.34153"
             id="path4089-9"
             inkscape:connector-curvature="0" />
          <path
             inkscape:connector-curvature="0"
             id="path4091-4"
             d="m -1297.9593,404.94913 -38.4483,1.17907 -18.506,-0.34153"
             style="opacity:1;vector-effect:none;fill:none;fill-opacity:1;stroke:#fefefe;stroke-width:5;stroke-linecap:round;stroke-linejoin:round;stroke-miterlimit:4;stroke-dasharray:none;stroke-dashoffset:0;stroke-opacity:0.99215686"
             sodipodi:nodetypes="ccc" />
          <path
             sodipodi:nodetypes="ccc"
             style="opacity:1;vector-effect:none;fill:none;fill-opacity:1;stroke:#fefefe;stroke-width:5;stroke-linecap:round;stroke-linejoin:round;stroke-miterlimit:4;stroke-dasharray:none;stroke-dashoffset:0;stroke-opacity:0.99215686"
             d="m -1297.0456,413.47705 -38.4483,1.63592 -18.506,-0.79838"
             id="path4093-7"
             inkscape:connector-curvature="0" />
          <path
             inkscape:connector-curvature="0"
             id="path4095-8"
             d="m -1296.3603,421.47198 -39.895,2.54963 -16.9832,-1.10295"
             style="opacity:1;vector-effect:none;fill:none;fill-opacity:1;stroke:#fefefe;stroke-width:5;stroke-linecap:round;stroke-linejoin:round;stroke-miterlimit:4;stroke-dasharray:none;stroke-dashoffset:0;stroke-opacity:0.99215686"
             sodipodi:nodetypes="ccc" />
          <path
             sodipodi:nodetypes="ccc"
             style="opacity:1;vector-effect:none;fill:none;fill-opacity:1;stroke:#fefefe;stroke-width:5;stroke-linecap:round;stroke-linejoin:round;stroke-miterlimit:4;stroke-dasharray:none;stroke-dashoffset:0;stroke-opacity:0.99215686"
             d="m -1295.7512,429.77147 -39.5143,2.77806 -17.3639,-1.33138"
             id="path4097-4"
             inkscape:connector-curvature="0" />
        </g>
        <g
           id="g4327"
           style="stroke:#fefefe;stroke-width:5;stroke-linecap:round;stroke-linejoin:round;stroke-miterlimit:4;stroke-dasharray:none;stroke-opacity:0.99215686"
           transform="matrix(1.7565868,0,0,1.7565868,378.39395,3706.6903)">
          <path
             inkscape:connector-curvature="0"
             id="path4099-5"
             d="m -1345.2436,388.42627 -55.8883,2.13199 -33.198,-0.1523"
             style="opacity:1;vector-effect:none;fill:none;fill-opacity:1;stroke:#fefefe;stroke-width:5;stroke-linecap:round;stroke-linejoin:round;stroke-miterlimit:4;stroke-dasharray:none;stroke-dashoffset:0;stroke-opacity:0.99215686" />
          <path
             inkscape:connector-curvature="0"
             id="path4101-0"
             d="m -1432.3502,402.89329 23.9087,2.74111 65.4822,-4.11168"
             style="opacity:1;vector-effect:none;fill:none;fill-opacity:1;stroke:#fefefe;stroke-width:5;stroke-linecap:round;stroke-linejoin:round;stroke-miterlimit:4;stroke-dasharray:none;stroke-dashoffset:0;stroke-opacity:0.99215686" />
          <path
             inkscape:connector-curvature="0"
             id="path4103-3"
             d="m -1341.5887,415.53286 c -1.066,0.15229 -62.5889,4.26397 -62.5889,4.26397 l -26.1929,-3.95938"
             style="opacity:1;vector-effect:none;fill:none;fill-opacity:1;stroke:#fefefe;stroke-width:5;stroke-linecap:round;stroke-linejoin:round;stroke-miterlimit:4;stroke-dasharray:none;stroke-dashoffset:0;stroke-opacity:0.99215686" />
          <path
             inkscape:connector-curvature="0"
             id="path4105-6"
             d="m -1428.3908,428.62931 25.5838,5.78681 60,-6.39593"
             style="opacity:1;vector-effect:none;fill:none;fill-opacity:1;stroke:#fefefe;stroke-width:5;stroke-linecap:round;stroke-linejoin:round;stroke-miterlimit:4;stroke-dasharray:none;stroke-dashoffset:0;stroke-opacity:0.99215686" />
          <path
             inkscape:connector-curvature="0"
             id="path4107-1"
             d="m -1338.543,441.4212 c -0.6092,0.15227 -58.7818,6.24364 -58.7818,6.24364 l -28.7817,-6.7005"
             style="opacity:1;vector-effect:none;fill:none;fill-opacity:1;stroke:#fefefe;stroke-width:5;stroke-linecap:round;stroke-linejoin:round;stroke-miterlimit:4;stroke-dasharray:none;stroke-dashoffset:0;stroke-opacity:0.99215686" />
          <path
             inkscape:connector-curvature="0"
             id="path4109-0"
             d="m -1425.9542,456.04049 22.9949,5.93907 63.6548,-8.37562"
             style="opacity:1;vector-effect:none;fill:none;fill-opacity:1;stroke:#fefefe;stroke-width:5;stroke-linecap:round;stroke-linejoin:round;stroke-miterlimit:4;stroke-dasharray:none;stroke-dashoffset:0;stroke-opacity:0.99215686" />
        </g>
      </g>
      <path
         sodipodi:nodetypes="ccccccccccccccccccccccccsccccccccccccccccccccccccccccccccccccccccccccccccccccccccccccccccccccccccccccccccccccccccccccccccccccccccccccc"
         inkscape:connector-curvature="0"
         id="path4033-6"
         d="m -1379.1332,3924.1442 -472.2524,263.2386 11.9957,18.2393 5.9148,73.7793 6.7374,4.1076 -1.7285,-30.9177 93.8523,-40.2892 0.6218,18.8239 -93.491,37.1374 0.4367,5.6009 93.2532,-36.7272 0.6989,21.1802 -90.2267,32.2666 0.4356,5.6 89.9889,-31.8763 0.5683,17.2072 -87.2485,27.7941 0.4358,5.5998 87.0098,-27.4219 0.7216,21.8393 7.5659,-2.0805 -0.9285,-22.0782 131.0769,-41.3103 -0.3976,29.4525 c 0,0 8.8278,0.8024 8.8278,-1.8725 0,-0.4065 0.1352,-22.3798 0.1825,-30.295 l 195.3749,-61.5749 -3.4992,39.3451 7.5668,3.0264 3.9207,-42.8735 244.9186,68.903 0.3285,-8.2159 -244.6544,-67.1775 2.9628,-32.3964 239.2225,52.6844 0.3287,-8.2159 -238.9503,-51.0478 3.2416,-35.4435 237.6503,52.3375 0.3286,-8.2159 -237.377,-50.712 3.0662,-33.5283 233.6036,37.2238 0.3287,-8.2161 -233.3222,-35.6859 3.5575,-38.9023 230.9075,36.7946 0.3287,-8.2161 -230.6244,-35.2739 3.3505,-36.6427 228.4585,25.2787 0.3285,-8.2159 -228.1671,-23.8392 0.097,-1.0538 -7.5414,-29.4054 233.0789,22.1679 0.3286,-8.2159 z m 0.9857,6.9015 7.8393,30.4184 -214.7107,110.6065 -11.1802,-22.0741 -7.1508,3.3641 11.9323,21.9987 v 0 l -140.375,72.3125 -9.1292,-15.0639 z m 7.1494,38.175 -3.1735,35.678 -210.0795,99.876 c 0.044,-7.085 0.1581,-25.7057 0.1651,-26.7711 z m -3.857,43.362 -3.511,39.4777 -206.1092,89.1765 c 0.084,-13.5886 0.1283,-20.8582 0.1852,-30.1044 z m -4.1873,47.0801 -2.8086,31.5802 -202.8131,80.564 c 0.074,-12.0095 0.079,-12.6752 0.1476,-23.9381 z m -212.4624,22.1279 -0.3594,26.6031 -137.5927,65.4146 -0.8888,-21.1386 z m 208.982,16.9983 -3.1379,35.2831 -199.2049,71.2377 c 0.072,-11.802 0.081,-13.718 0.1616,-26.8917 z m -209.4267,15.9473 -0.4049,29.9091 -135.8562,58.7808 -1.0141,-24.0951 z m -156.2087,21.8992 6.5575,16.0962 -92.6405,47.7226 -9.0928,-10.9357 z m 361.833,4.9092 -2.7233,30.6125 -195.9941,62.4372 c 0.042,-6.8821 0.079,-13.2693 0.137,-22.7079 z m -206.1181,9.7272 -0.3215,23.7538 -134.3947,53.386 -0.7978,-18.9662 z m -147.2403,6.1655 3.5457,8.7016 0.3522,10.6778 -94.4071,44.8832 -0.9812,-17.5567 z m 146.8299,24.1903 -0.3604,26.6676 -132.7943,47.4886 -0.8987,-21.3592 z m -142.7497,0.7054 0.7908,23.9499 -93.9686,40.6567 -1.1309,-20.2299 z m 142.3004,32.5271 -0.3032,22.462 -131.4174,41.8651 -0.7325,-17.4087 z"
         style="opacity:1;vector-effect:none;fill:#ff30ff;fill-opacity:0.99215686;stroke:none;stroke-width:0.8782934;stroke-linecap:round;stroke-linejoin:round;stroke-miterlimit:4;stroke-dasharray:none;stroke-dashoffset:0;stroke-opacity:1" />
      <path
         inkscape:connector-curvature="0"
         id="path4023-2"
         d="m -2252.7114,3873.5729 -0.5029,10.7021 9.1364,63.2742 -7.8075,-3.0636 -0.4431,8.9222 9.6711,3.9804 12.7892,88.5701 10.8784,6.2807 -13.2549,-90.5654 100.4734,41.3541 16.2813,110.6182 15.3371,8.3658 -17.0501,-112.9876 80.7164,33.2217 15.3109,123.4871 14.9387,11.6854 -16.785,-129.63 136.3436,56.1175 12.899,150.862 17.2625,9.9599 -12.1273,-153.3992 236.787,97.4596 0.018,-0.2524 -2.0825,177.3627 18.8747,0.3995 4.557,-396.0531 z m 8.6897,7.635 97.181,19.4364 13.2867,90.2705 -100.1631,-39.3007 z m 110.877,22.176 81.4608,16.293 13.4709,108.6458 -80.8653,-31.7282 z m 93.854,18.7721 139.4583,27.8921 11.728,137.1724 -136.7603,-53.6602 z m 156.4703,31.2954 253.3741,50.6764 -2.1567,183.7352 -238.3857,-93.5348 -11.0944,-140.3286 z"
         style="opacity:1;vector-effect:none;fill:#ff30ff;fill-opacity:0.99215686;stroke:none;stroke-width:0.8782934;stroke-linecap:round;stroke-linejoin:round;stroke-miterlimit:4;stroke-dasharray:none;stroke-dashoffset:0;stroke-opacity:1" />
    </g>
  </g>
</svg>
