<?xml version="1.0" encoding="UTF-8" standalone="no"?>
<!-- Created with Inkscape (http://www.inkscape.org/) -->

<svg
   xmlns:dc="http://purl.org/dc/elements/1.1/"
   xmlns:cc="http://creativecommons.org/ns#"
   xmlns:rdf="http://www.w3.org/1999/02/22-rdf-syntax-ns#"
   xmlns:svg="http://www.w3.org/2000/svg"
   xmlns="http://www.w3.org/2000/svg"
   xmlns:sodipodi="http://sodipodi.sourceforge.net/DTD/sodipodi-0.dtd"
   xmlns:inkscape="http://www.inkscape.org/namespaces/inkscape"
   width="349.78305mm"
   height="90.361359mm"
   viewBox="0 0 349.78305 90.361359"
   version="1.1"
   id="svg8769"
   inkscape:version="0.92.4 (5da689c313, 2019-01-14)"
   sodipodi:docname="logo-glow.svg">
  <defs
     id="defs8763">
    <filter
       inkscape:collect="always"
       style="color-interpolation-filters:sRGB"
       id="filter9696"
       x="-0.028708192"
       width="1.0574164"
       y="-0.12655377"
       height="1.2531075">
      <feGaussianBlur
         inkscape:collect="always"
         stdDeviation="3.8024042"
         id="feGaussianBlur9698" />
    </filter>
  </defs>
  <sodipodi:namedview
     id="base"
     pagecolor="#ffffff"
     bordercolor="#666666"
     borderopacity="1.0"
     inkscape:pageopacity="0.0"
     inkscape:pageshadow="2"
     inkscape:zoom="0.35"
     inkscape:cx="1584.6824"
     inkscape:cy="65.04733"
     inkscape:document-units="mm"
     inkscape:current-layer="layer1"
     showgrid="false"
     fit-margin-top="0"
     fit-margin-left="0"
     fit-margin-right="0"
     fit-margin-bottom="0"
     inkscape:window-width="1920"
     inkscape:window-height="1016"
     inkscape:window-x="1680"
     inkscape:window-y="27"
     inkscape:window-maximized="1" />
  <metadata
     id="metadata8766">
    <rdf:RDF>
      <cc:Work
         rdf:about="">
        <dc:format>image/svg+xml</dc:format>
        <dc:type
           rdf:resource="http://purl.org/dc/dcmitype/StillImage" />
        <dc:title />
      </cc:Work>
    </rdf:RDF>
  </metadata>
  <g
     inkscape:label="Layer 1"
     inkscape:groupmode="layer"
     id="layer1"
     transform="translate(151.45697,-78.706226)">
    <g
       style="opacity:0.98999999"
       transform="translate(1255.1368,546.55351)"
       id="g1217">
      <g
         aria-label="yuki zhao."
         style="font-style:normal;font-variant:normal;font-weight:normal;font-stretch:normal;font-size:72.1098175px;line-height:125%;font-family:'Trend Sans';-inkscape-font-specification:'Trend Sans';text-align:end;letter-spacing:0px;word-spacing:0px;text-anchor:end;fill:#ff30ff;fill-opacity:0.9948454;stroke:none;stroke-width:1.80274534;filter:url(#filter9696)"
         id="text1211">
        <path
           d="m -1367.7487,-437.08857 -10.9607,28.12283 -11.0328,-28.12283 h -7.3552 l 14.9989,35.76647 -6.3457,14.7104 h 6.9225 l 21.1282,-50.47687 z"
           style="font-style:normal;font-variant:normal;font-weight:normal;font-stretch:normal;font-family:Acre;-inkscape-font-specification:Acre;fill:#ff30ff;fill-opacity:0.9948454;stroke-width:1.80274534"
           id="path822" />
        <path
           d="m -1330.584,-437.08857 v 19.68598 c 0,7.13887 -3.7497,10.88858 -8.7974,10.88858 -5.1198,0 -8.7974,-3.74971 -8.7974,-10.88858 v -19.68598 h -6.7783 v 20.69552 c 0,10.74436 6.4178,16.08049 13.4846,16.08049 4.9755,0 8.7974,-2.37963 10.8885,-5.76879 v 5.04769 h 6.7784 v -36.05491 z"
           style="font-style:normal;font-variant:normal;font-weight:normal;font-stretch:normal;font-family:Acre;-inkscape-font-specification:Acre;fill:#ff30ff;fill-opacity:0.9948454;stroke-width:1.80274534"
           id="path824" />
        <path
           d="m -1282.3233,-401.03366 -17.0901,-17.81113 16.0805,-18.24378 h -8.2926 l -14.7825,17.09003 v -38.72297 h -6.7783 v 57.68785 h 6.7783 v -16.58526 l 15.2873,16.58526 z"
           style="font-style:normal;font-variant:normal;font-weight:normal;font-stretch:normal;font-family:Acre;-inkscape-font-specification:Acre;fill:#ff30ff;fill-opacity:0.9948454;stroke-width:1.80274534"
           id="path826" />
        <path
           d="m -1271.8122,-443.86689 c 2.6681,0 4.615,-2.01908 4.615,-4.68714 0,-2.52384 -1.9469,-4.54292 -4.615,-4.54292 -2.6681,0 -4.615,2.01908 -4.615,4.54292 0,2.66806 1.9469,4.68714 4.615,4.68714 z m -3.3892,42.83323 h 6.7784 v -36.05491 h -6.7784 z"
           style="font-style:normal;font-variant:normal;font-weight:normal;font-stretch:normal;font-family:Acre;-inkscape-font-specification:Acre;fill:#ff30ff;fill-opacity:0.9948454;stroke-width:1.80274534"
           id="path828" />
        <path
           d="m -1206.0278,-437.08857 h -29.9255 v 6.48988 h 18.6764 l -18.388,28.55549 v 1.00954 h 29.2045 v -6.48988 h -18.0275 l 18.4601,-28.69971 z"
           style="font-style:normal;font-variant:normal;font-weight:normal;font-stretch:normal;font-family:Acre;-inkscape-font-specification:Acre;fill:#ff30ff;fill-opacity:0.9948454;stroke-width:1.80274534"
           id="path830" />
        <path
           d="m -1181.3673,-437.80967 c -5.0477,0 -8.8695,2.45174 -10.9607,5.8409 v -26.75274 h -6.7783 v 57.68785 h 6.7783 v -19.97442 l 0.072,0.28844 c 0,-7.13887 3.7497,-10.88858 8.7974,-10.88858 5.1198,0 8.7974,3.74971 8.7974,10.88858 v 19.68598 h 6.7783 v -20.69552 c 0,-10.74436 -6.4178,-16.08049 -13.4845,-16.08049 z"
           style="font-style:normal;font-variant:normal;font-weight:normal;font-stretch:normal;font-family:Acre;-inkscape-font-specification:Acre;fill:#ff30ff;fill-opacity:0.9948454;stroke-width:1.80274534"
           id="path832" />
        <path
           d="m -1131.2938,-437.08857 v 5.76879 c -2.8123,-3.74971 -6.9947,-6.27356 -12.3308,-6.27356 -10.0233,0 -16.8737,8.14841 -16.8737,18.53222 0,10.38382 6.8504,18.53223 16.8737,18.53223 5.3361,0 9.5185,-2.52385 12.3308,-6.27356 v 5.76879 h 6.7783 v -36.05491 z m -11.1771,29.99768 c -6.4898,0 -11.0328,-5.33612 -11.0328,-11.97023 0,-6.56199 4.543,-11.89812 11.0328,-11.89812 6.4899,0 11.1771,5.55246 11.1771,11.89812 0,6.34567 -4.6872,11.97023 -11.1771,11.97023 z"
           style="font-style:normal;font-variant:normal;font-weight:normal;font-stretch:normal;font-family:Acre;-inkscape-font-specification:Acre;fill:#ff30ff;fill-opacity:0.9948454;stroke-width:1.80274534"
           id="path834" />
        <path
           d="m -1097.605,-400.45678 c 10.8886,0 18.388,-8.58107 18.388,-18.60434 0,-10.02326 -7.4994,-18.60433 -18.388,-18.60433 -10.8886,0 -18.388,8.58107 -18.388,18.60433 0,10.02327 7.4994,18.60434 18.388,18.60434 z m 0,-6.77833 c -6.7783,0 -11.4655,-5.48034 -11.4655,-11.89812 0,-6.34566 4.6872,-11.7539 11.4655,-11.7539 6.9225,0 11.3933,5.40824 11.3933,11.7539 0,6.41778 -4.4708,11.89812 -11.3933,11.89812 z"
           style="font-style:normal;font-variant:normal;font-weight:normal;font-stretch:normal;font-family:Acre;-inkscape-font-specification:Acre;fill:#ff30ff;fill-opacity:0.9948454;stroke-width:1.80274534"
           id="path836" />
        <path
           d="m -1070.85,-400.52889 c 2.5238,0 4.5429,-2.01908 4.5429,-4.54292 0,-2.45173 -2.0191,-4.54292 -4.5429,-4.54292 -2.5239,0 -4.4709,2.09119 -4.4709,4.54292 0,2.52384 1.947,4.54292 4.4709,4.54292 z"
           style="font-style:normal;font-variant:normal;font-weight:normal;font-stretch:normal;font-family:Acre;-inkscape-font-specification:Acre;fill:#ff30ff;fill-opacity:0.9948454;stroke-width:1.80274534"
           id="path838" />
      </g>
      <g
         aria-label="yuki zhao."
         style="font-style:normal;font-variant:normal;font-weight:normal;font-stretch:normal;font-size:72.1098175px;line-height:125%;font-family:'Trend Sans';-inkscape-font-specification:'Trend Sans';text-align:end;letter-spacing:0px;word-spacing:0px;text-anchor:end;fill:#ffffff;fill-opacity:1;stroke:none;stroke-width:1.80274534"
         id="text1215">
        <path
           d="m -1367.7487,-437.08857 -10.9607,28.12283 -11.0328,-28.12283 h -7.3552 l 14.9989,35.76647 -6.3457,14.7104 h 6.9225 l 21.1282,-50.47687 z"
           style="font-style:normal;font-variant:normal;font-weight:normal;font-stretch:normal;font-family:Acre;-inkscape-font-specification:Acre;fill:#ffffff;fill-opacity:1;stroke-width:1.80274534"
           id="path841" />
        <path
           d="m -1330.584,-437.08857 v 19.68598 c 0,7.13887 -3.7497,10.88858 -8.7974,10.88858 -5.1198,0 -8.7974,-3.74971 -8.7974,-10.88858 v -19.68598 h -6.7783 v 20.69552 c 0,10.74436 6.4178,16.08049 13.4846,16.08049 4.9755,0 8.7974,-2.37963 10.8885,-5.76879 v 5.04769 h 6.7784 v -36.05491 z"
           style="font-style:normal;font-variant:normal;font-weight:normal;font-stretch:normal;font-family:Acre;-inkscape-font-specification:Acre;fill:#ffffff;fill-opacity:1;stroke-width:1.80274534"
           id="path843" />
        <path
           d="m -1282.3233,-401.03366 -17.0901,-17.81113 16.0805,-18.24378 h -8.2926 l -14.7825,17.09003 v -38.72297 h -6.7783 v 57.68785 h 6.7783 v -16.58526 l 15.2873,16.58526 z"
           style="font-style:normal;font-variant:normal;font-weight:normal;font-stretch:normal;font-family:Acre;-inkscape-font-specification:Acre;fill:#ffffff;fill-opacity:1;stroke-width:1.80274534"
           id="path845" />
        <path
           d="m -1271.8122,-443.86689 c 2.6681,0 4.615,-2.01908 4.615,-4.68714 0,-2.52384 -1.9469,-4.54292 -4.615,-4.54292 -2.6681,0 -4.615,2.01908 -4.615,4.54292 0,2.66806 1.9469,4.68714 4.615,4.68714 z m -3.3892,42.83323 h 6.7784 v -36.05491 h -6.7784 z"
           style="font-style:normal;font-variant:normal;font-weight:normal;font-stretch:normal;font-family:Acre;-inkscape-font-specification:Acre;fill:#ffffff;fill-opacity:1;stroke-width:1.80274534"
           id="path847" />
        <path
           d="m -1206.0278,-437.08857 h -29.9255 v 6.48988 h 18.6764 l -18.388,28.55549 v 1.00954 h 29.2045 v -6.48988 h -18.0275 l 18.4601,-28.69971 z"
           style="font-style:normal;font-variant:normal;font-weight:normal;font-stretch:normal;font-family:Acre;-inkscape-font-specification:Acre;fill:#ffffff;fill-opacity:1;stroke-width:1.80274534"
           id="path849" />
        <path
           d="m -1181.3673,-437.80967 c -5.0477,0 -8.8695,2.45174 -10.9607,5.8409 v -26.75274 h -6.7783 v 57.68785 h 6.7783 v -19.97442 l 0.072,0.28844 c 0,-7.13887 3.7497,-10.88858 8.7974,-10.88858 5.1198,0 8.7974,3.74971 8.7974,10.88858 v 19.68598 h 6.7783 v -20.69552 c 0,-10.74436 -6.4178,-16.08049 -13.4845,-16.08049 z"
           style="font-style:normal;font-variant:normal;font-weight:normal;font-stretch:normal;font-family:Acre;-inkscape-font-specification:Acre;fill:#ffffff;fill-opacity:1;stroke-width:1.80274534"
           id="path851" />
        <path
           d="m -1131.2938,-437.08857 v 5.76879 c -2.8123,-3.74971 -6.9947,-6.27356 -12.3308,-6.27356 -10.0233,0 -16.8737,8.14841 -16.8737,18.53222 0,10.38382 6.8504,18.53223 16.8737,18.53223 5.3361,0 9.5185,-2.52385 12.3308,-6.27356 v 5.76879 h 6.7783 v -36.05491 z m -11.1771,29.99768 c -6.4898,0 -11.0328,-5.33612 -11.0328,-11.97023 0,-6.56199 4.543,-11.89812 11.0328,-11.89812 6.4899,0 11.1771,5.55246 11.1771,11.89812 0,6.34567 -4.6872,11.97023 -11.1771,11.97023 z"
           style="font-style:normal;font-variant:normal;font-weight:normal;font-stretch:normal;font-family:Acre;-inkscape-font-specification:Acre;fill:#ffffff;fill-opacity:1;stroke-width:1.80274534"
           id="path853" />
        <path
           d="m -1097.605,-400.45678 c 10.8886,0 18.388,-8.58107 18.388,-18.60434 0,-10.02326 -7.4994,-18.60433 -18.388,-18.60433 -10.8886,0 -18.388,8.58107 -18.388,18.60433 0,10.02327 7.4994,18.60434 18.388,18.60434 z m 0,-6.77833 c -6.7783,0 -11.4655,-5.48034 -11.4655,-11.89812 0,-6.34566 4.6872,-11.7539 11.4655,-11.7539 6.9225,0 11.3933,5.40824 11.3933,11.7539 0,6.41778 -4.4708,11.89812 -11.3933,11.89812 z"
           style="font-style:normal;font-variant:normal;font-weight:normal;font-stretch:normal;font-family:Acre;-inkscape-font-specification:Acre;fill:#ffffff;fill-opacity:1;stroke-width:1.80274534"
           id="path855" />
        <path
           d="m -1070.85,-400.52889 c 2.5238,0 4.5429,-2.01908 4.5429,-4.54292 0,-2.45173 -2.0191,-4.54292 -4.5429,-4.54292 -2.5239,0 -4.4709,2.09119 -4.4709,4.54292 0,2.52384 1.947,4.54292 4.4709,4.54292 z"
           style="font-style:normal;font-variant:normal;font-weight:normal;font-stretch:normal;font-family:Acre;-inkscape-font-specification:Acre;fill:#ffffff;fill-opacity:1;stroke-width:1.80274534"
           id="path857" />
      </g>
    </g>
  </g>
</svg>
